<svg width="26" height="24" viewBox="0 0 26 24" fill="none" xmlns="http://www.w3.org/2000/svg">
<path d="M4 5.85859C4 5.31985 4.18856 4.87541 4.56566 4.52525C4.94276 4.17508 5.433 4 6.03636 4C6.62896 4 7.10841 4.17238 7.47475 4.51717C7.85185 4.87273 8.0404 5.33602 8.0404 5.90707C8.0404 6.42424 7.85724 6.85521 7.49091 7.2C7.11381 7.55556 6.61818 7.73333 6.00404 7.73333H5.98788C5.39528 7.73333 4.91583 7.55556 4.54949 7.2C4.18316 6.84444 4 6.3973 4 5.85859ZM4.2101 20V9.20404H7.79798V20H4.2101ZM9.78586 20H13.3737V13.9717C13.3737 13.5946 13.4168 13.3037 13.503 13.099C13.6539 12.7327 13.8828 12.4229 14.1899 12.1697C14.497 11.9165 14.8821 11.7899 15.3455 11.7899C16.5522 11.7899 17.1556 12.6034 17.1556 14.2303V20H20.7434V13.8101C20.7434 12.2155 20.3663 11.0061 19.6121 10.1818C18.8579 9.35758 17.8613 8.94545 16.6222 8.94545C15.2323 8.94545 14.1495 9.54343 13.3737 10.7394V10.7717H13.3576L13.3737 10.7394V9.20404H9.78586C9.8074 9.54882 9.81818 10.6209 9.81818 12.4202C9.81818 14.2195 9.8074 16.7461 9.78586 20Z" fill="white"/>
</svg>
