<svg width="24" height="24" viewBox="0 0 24 24" fill="none" xmlns="http://www.w3.org/2000/svg">
<path d="M16.1144 9.73268C16.6664 9.18068 17.2144 7.89268 14.9144 9.45668C12.7659 10.9354 10.6028 12.3928 8.42541 13.8287C8.09385 13.9786 7.7354 14.06 7.3716 14.0679C7.00781 14.0758 6.64617 14.0101 6.30841 13.8747C4.92841 13.4607 3.31741 12.9087 3.31741 12.9087C3.31741 12.9087 2.21741 12.2177 4.10041 11.4817C4.10041 11.4817 12.0614 8.21468 14.8224 7.06368C15.8804 6.60368 19.4694 5.13168 19.4694 5.13168C19.4694 5.13168 21.1264 4.48668 20.9884 6.05168C20.9424 6.69568 20.5744 8.95168 20.2064 11.3897C19.6534 14.8407 19.0554 18.6147 19.0554 18.6147C19.0554 18.6147 18.9634 19.6727 18.1814 19.8567C17.3443 19.8425 16.5355 19.5513 15.8814 19.0287C15.6974 18.8907 12.4304 16.8197 11.2334 15.8077C11.1116 15.7252 11.0127 15.6133 10.9458 15.4823C10.879 15.3513 10.8463 15.2055 10.8509 15.0585C10.8555 14.9115 10.8972 14.7681 10.9721 14.6415C11.047 14.515 11.1527 14.4094 11.2794 14.3347C12.9212 12.8326 14.5331 11.2983 16.1144 9.73268Z" fill="white"/>
</svg>
