<svg width="24" height="24" viewBox="0 0 24 24" fill="none" xmlns="http://www.w3.org/2000/svg">
<path d="M21.9191 9.93404C21.9638 8.6386 21.6805 7.35286 21.0955 6.19619C20.6985 5.72158 20.1476 5.40129 19.5388 5.29114C17.0205 5.06264 14.4918 4.96898 11.9635 5.01057C9.44445 4.96709 6.92485 5.05773 4.41541 5.28209C3.91928 5.37234 3.46015 5.60505 3.09404 5.95182C2.27949 6.70302 2.18899 7.98818 2.09848 9.07424C1.96717 11.0269 1.96717 12.9863 2.09848 14.939C2.12467 15.5502 2.21568 16.157 2.37 16.7491C2.47912 17.2062 2.69991 17.6291 3.01258 17.9799C3.38118 18.3451 3.85101 18.591 4.36111 18.6859C6.31232 18.9267 8.27835 19.0265 10.2439 18.9845C13.4116 19.0298 16.1901 18.9845 19.4754 18.7311C19.998 18.6421 20.4811 18.3958 20.8601 18.0252C21.1135 17.7717 21.3028 17.4614 21.4122 17.1201C21.7359 16.1269 21.8949 15.0875 21.8829 14.043C21.9191 13.5361 21.9191 10.4771 21.9191 9.93404ZM9.91811 14.586V8.98374L15.276 11.7984C13.7736 12.6311 11.7916 13.5723 9.91811 14.586Z" fill="white"/>
</svg>
