<svg width="1440" height="135" viewBox="0 0 1440 135" fill="none" xmlns="http://www.w3.org/2000/svg">
<g clip-path="url(#clip0_5762_379)">
<rect width="1440" height="135" fill="white"/>
<rect x="1467" y="146" width="1485" height="147" transform="rotate(180 1467 146)" fill="black"/>
<rect width="20" height="16" fill="white"/>
<rect y="36" width="20" height="20" fill="white"/>
<rect x="40" y="16" width="20" height="40" fill="white"/>
<rect x="80" y="56" width="20" height="20" fill="white"/>
<rect x="180" y="56" width="20" height="20" fill="white"/>
<rect x="200" y="76" width="20" height="20" fill="white"/>
<rect x="260" width="20" height="16" fill="white"/>
<rect x="260" y="56" width="20" height="20" fill="white"/>
<rect x="300" y="56" width="20" height="20" fill="white"/>
<rect x="300" width="30" height="16" fill="white"/>
<rect x="340" y="36" width="20" height="20" fill="white"/>
<rect x="380" y="76" width="20" height="20" fill="white"/>
<rect x="400" y="96" width="20" height="20" fill="white"/>
<rect x="380" y="116" width="20" height="19" fill="white"/>
<rect x="420" y="116" width="20" height="19" fill="white"/>
<rect x="460" y="116" width="20" height="19" fill="white"/>
<rect x="460" y="56" width="20" height="20" fill="white"/>
<rect x="540" width="20" height="16" fill="white"/>
<rect x="540" y="36" width="20" height="20" fill="white"/>
<rect x="580" width="20" height="16" fill="white"/>
<rect x="640" y="16" width="20" height="20" fill="white"/>
<rect x="680" y="16" width="20" height="20" fill="white"/>
<rect x="720" y="16" width="20" height="20" fill="white"/>
<rect x="699" width="22" height="30" fill="white"/>
<rect x="739" width="21" height="30" fill="white"/>
<rect x="780" width="20" height="37" fill="white"/>
<rect x="820" width="40" height="16" fill="white"/>
<rect x="848" width="40" height="10" fill="white"/>
<rect x="940" width="40" height="16" fill="white"/>
<rect x="957" width="74" height="10" fill="white"/>
<rect x="1020" width="20" height="36" fill="white"/>
<rect x="1020" y="16" width="40" height="20" fill="white"/>
<rect x="1060" width="60" height="16" fill="white"/>
<rect x="1080" y="1" width="20" height="35" fill="white"/>
<rect x="1100" y="36" width="20" height="20" fill="white"/>
<rect x="1160" width="20" height="16" fill="white"/>
<rect x="1180" y="16" width="20" height="20" fill="white"/>
<rect x="1160" y="76" width="20" height="20" fill="white"/>
<rect x="1200" y="36" width="20" height="20" fill="white"/>
<rect x="1220" y="16" width="20" height="20" fill="white"/>
<rect x="1240" width="20" height="16" fill="white"/>
<rect x="1280" width="60" height="16" fill="white"/>
<rect x="1247" width="50" height="10" fill="white"/>
<rect x="1260" y="30" width="20" height="6" fill="white"/>
<rect x="1280" y="36" width="20" height="20" fill="white"/>
<rect x="1340" y="16" width="20" height="20" fill="white"/>
<rect x="1360" y="76" width="20" height="20" fill="white"/>
<rect x="1360" width="40" height="16" fill="white"/>
<rect x="1400" width="40" height="20" transform="rotate(90 1400 0)" fill="white"/>
<rect x="1380" width="13" height="16" fill="white"/>
<rect x="1420" width="20" height="16" fill="white"/>
<rect x="1420" width="20" height="36" fill="white"/>
<rect x="1401" y="36" width="20" height="36" transform="rotate(-90 1401 36)" fill="white"/>
<rect x="1380" y="16" width="40" height="40" fill="white"/>
<rect x="1220" y="56" width="40" height="40" fill="white"/>
<rect x="1060" y="56" width="40" height="20" fill="white"/>
<rect x="1040" y="76" width="20" height="20" fill="white"/>
<rect x="960" y="36" width="20" height="20" fill="white"/>
<rect x="980" y="30" width="20" height="6" fill="white"/>
<rect x="1000" y="50" width="20" height="6" fill="white"/>
<rect x="860" y="30" width="20" height="6" fill="white"/>
<rect x="820" y="36" width="20" height="20" fill="white"/>
<rect x="860" y="76" width="20" height="20" fill="white"/>
<rect x="880" y="56" width="20" height="20" fill="white"/>
<rect x="880" width="40" height="16" fill="white"/>
<rect x="900" width="20" height="56" fill="white"/>
<rect x="760" y="30" width="40" height="26" fill="white"/>
<rect x="740" y="50" width="25" height="6" fill="white"/>
<rect x="640" y="56" width="20" height="20" fill="white"/>
<rect x="660" y="76" width="20" height="20" fill="white"/>
<rect x="740" y="76" width="20" height="20" fill="white"/>
<rect x="700" y="50" width="20" height="6" fill="white"/>
<rect x="620" y="116" width="20" height="19" fill="white"/>
<rect x="600" y="36" width="40" height="20" fill="white"/>
<rect x="620" y="16" width="40" height="20" transform="rotate(90 620 16)" fill="white"/>
<rect x="480" y="16" width="60" height="20" fill="white"/>
<rect x="460" width="40" height="16" fill="white"/>
<rect x="480" width="20" height="56" fill="white"/>
<rect x="380" y="36" width="60" height="20" fill="white"/>
<rect x="400" y="16" width="40" height="40" fill="white"/>
<rect x="320" width="20" height="36" fill="white"/>
<rect x="332" y="10" width="28" height="6" fill="white"/>
<rect x="100" y="16" width="20" height="34" fill="white"/>
<rect x="140" y="15" width="40" height="29" fill="white"/>
<rect x="160" width="20" height="39" fill="white"/>
<rect x="120" width="20" height="16" fill="white"/>
<rect x="134" y="10" width="36" height="6" fill="white"/>
<rect x="100" y="36" width="80" height="20" fill="white"/>
<rect x="40" y="76" width="20" height="20" fill="white"/>
<rect x="20" y="16" width="40" height="20" fill="white"/>
<rect x="60" width="40" height="16" fill="white"/>
</g>
<defs>
<clipPath id="clip0_5762_379">
<rect width="1440" height="135" fill="white"/>
</clipPath>
</defs>
</svg>
