<svg width="84" height="30" viewBox="0 0 84 30" fill="none" xmlns="http://www.w3.org/2000/svg">
<path d="M0.451172 0H15.0666C19.1468 0 23.06 1.58035 25.9451 4.3934C28.8303 7.20644 30.4512 11.0218 30.4512 15C30.4512 18.9782 28.8303 22.7936 25.9451 25.6066C23.0599 28.4196 19.1468 30 15.0666 30V22.3099C17.055 22.3099 18.9619 21.5397 20.368 20.1689C21.774 18.798 22.5639 16.9387 22.5639 15C22.5639 13.0613 21.774 11.202 20.368 9.83114C18.9619 8.46027 17.055 7.69012 15.0666 7.69012V7.69231H7.37425V14.6154H0.451172V0Z" fill="white"/>
<path d="M7.37425 14.6154L15.0666 14.6154V22.3077H7.37425L7.37425 14.6154Z" fill="white"/>
<path d="M36.7863 22.5V8.38513H48.1566C48.6532 8.38513 49.1106 8.50929 49.5288 8.75761C49.947 9.00592 50.2803 9.33919 50.5286 9.75741C50.7769 10.1626 50.9011 10.6134 50.9011 11.1101V19.775C50.9011 20.2717 50.7769 20.7291 50.5286 21.1473C50.2803 21.5525 49.947 21.8792 49.5288 22.1275C49.1106 22.3758 48.6532 22.5 48.1566 22.5H36.7863ZM39.5896 19.8927H48.0389C48.1043 19.8927 48.1631 19.8731 48.2154 19.8338C48.2676 19.7816 48.2938 19.7228 48.2938 19.6574V11.2277C48.2938 11.1624 48.2676 11.1101 48.2154 11.0709C48.1631 11.0186 48.1043 10.9925 48.0389 10.9925H39.5896C39.5243 10.9925 39.4655 11.0186 39.4132 11.0709C39.374 11.1101 39.3544 11.1624 39.3544 11.2277V19.6574C39.3544 19.7228 39.374 19.7816 39.4132 19.8338C39.4655 19.8731 39.5243 19.8927 39.5896 19.8927Z" fill="white"/>
<path d="M55.7822 22.5C55.2856 22.5 54.8281 22.3758 54.4099 22.1275C54.0048 21.8792 53.678 21.5525 53.4297 21.1473C53.1814 20.7291 53.0572 20.2717 53.0572 19.775V11.1101C53.0572 10.6134 53.1814 10.1626 53.4297 9.75741C53.678 9.33919 54.0048 9.00592 54.4099 8.75761C54.8281 8.50929 55.2856 8.38513 55.7822 8.38513H64.4471C64.9438 8.38513 65.3947 8.50929 65.7998 8.75761C66.218 9.00592 66.5513 9.33919 66.7996 9.75741C67.0479 10.1626 67.1721 10.6134 67.1721 11.1101V19.775C67.1721 20.2717 67.0479 20.7291 66.7996 21.1473C66.5513 21.5525 66.218 21.8792 65.7998 22.1275C65.3947 22.3758 64.9438 22.5 64.4471 22.5H55.7822ZM55.8802 19.8927H64.3099C64.3753 19.8927 64.4341 19.8731 64.4863 19.8338C64.5386 19.7816 64.5648 19.7228 64.5648 19.6574V11.2277C64.5648 11.1624 64.5386 11.1101 64.4863 11.0709C64.4341 11.0186 64.3753 10.9925 64.3099 10.9925H55.8802C55.8149 10.9925 55.756 11.0186 55.7038 11.0709C55.6646 11.1101 55.645 11.1624 55.645 11.2277V19.6574C55.645 19.7228 55.6646 19.7816 55.7038 19.8338C55.756 19.8731 55.8149 19.8927 55.8802 19.8927Z" fill="white"/>
<path d="M69.331 22.5V8.40474H80.7013C81.1979 8.40474 81.6553 8.52889 82.0736 8.77721C82.4918 9.02553 82.825 9.35879 83.0733 9.77701C83.3217 10.1822 83.4458 10.6331 83.4458 11.1297V14.9329C83.4458 15.4295 83.3217 15.8869 83.0733 16.3051C82.825 16.7234 82.4918 17.0566 82.0736 17.3049C81.6553 17.5402 81.1979 17.6578 80.7013 17.6578L71.9187 17.6774V22.5H69.331ZM72.1539 15.0505H80.5836C80.649 15.0505 80.7078 15.0309 80.7601 14.9917C80.8124 14.9525 80.8385 14.9002 80.8385 14.8348V11.2277C80.8385 11.1624 80.8124 11.1101 80.7601 11.0709C80.7078 11.0186 80.649 10.9925 80.5836 10.9925H72.1539C72.0886 10.9925 72.0298 11.0186 71.9775 11.0709C71.9383 11.1101 71.9187 11.1624 71.9187 11.2277V14.8348C71.9187 14.9002 71.9383 14.9525 71.9775 14.9917C72.0298 15.0309 72.0886 15.0505 72.1539 15.0505Z" fill="white"/>
</svg>
