<svg width="1440" height="135" viewBox="0 0 1440 135" fill="none" xmlns="http://www.w3.org/2000/svg">
<g clip-path="url(#clip0_5762_99)">
<rect width="1440" height="135" transform="matrix(-1 0 0 -1 1440 135)" fill="white"/>
<rect x="-27" y="-11" width="1485" height="147" fill="black"/>
<rect x="1440" y="135" width="20" height="16" transform="rotate(180 1440 135)" fill="white"/>
<rect x="1440" y="99" width="20" height="20" transform="rotate(180 1440 99)" fill="white"/>
<rect x="1400" y="119" width="20" height="40" transform="rotate(180 1400 119)" fill="white"/>
<rect x="1360" y="79" width="20" height="20" transform="rotate(180 1360 79)" fill="white"/>
<rect x="1260" y="79" width="20" height="20" transform="rotate(180 1260 79)" fill="white"/>
<rect x="1240" y="59" width="20" height="20" transform="rotate(180 1240 59)" fill="white"/>
<rect x="1180" y="135" width="20" height="16" transform="rotate(180 1180 135)" fill="white"/>
<rect x="1180" y="79" width="20" height="20" transform="rotate(180 1180 79)" fill="white"/>
<rect x="1140" y="79" width="20" height="20" transform="rotate(180 1140 79)" fill="white"/>
<rect x="1140" y="135" width="30" height="16" transform="rotate(180 1140 135)" fill="white"/>
<rect x="1100" y="99" width="20" height="20" transform="rotate(180 1100 99)" fill="white"/>
<rect x="1060" y="59" width="20" height="20" transform="rotate(180 1060 59)" fill="white"/>
<rect x="1040" y="39" width="20" height="20" transform="rotate(180 1040 39)" fill="white"/>
<rect x="1060" y="19" width="20" height="19" transform="rotate(180 1060 19)" fill="white"/>
<rect x="1020" y="19" width="20" height="19" transform="rotate(180 1020 19)" fill="white"/>
<rect x="980" y="19" width="20" height="19" transform="rotate(180 980 19)" fill="white"/>
<rect x="980" y="79" width="20" height="20" transform="rotate(180 980 79)" fill="white"/>
<rect x="900" y="135" width="20" height="16" transform="rotate(180 900 135)" fill="white"/>
<rect x="900" y="99" width="20" height="20" transform="rotate(180 900 99)" fill="white"/>
<rect x="860" y="135" width="20" height="16" transform="rotate(180 860 135)" fill="white"/>
<rect x="800" y="119" width="20" height="20" transform="rotate(180 800 119)" fill="white"/>
<rect x="760" y="119" width="20" height="20" transform="rotate(180 760 119)" fill="white"/>
<rect x="720" y="119" width="20" height="20" transform="rotate(180 720 119)" fill="white"/>
<rect x="741" y="135" width="22" height="30" transform="rotate(180 741 135)" fill="white"/>
<rect x="701" y="135" width="21" height="30" transform="rotate(180 701 135)" fill="white"/>
<rect x="660" y="135" width="20" height="37" transform="rotate(180 660 135)" fill="white"/>
<rect x="620" y="135" width="40" height="16" transform="rotate(180 620 135)" fill="white"/>
<rect x="592" y="135" width="40" height="10" transform="rotate(180 592 135)" fill="white"/>
<rect x="500" y="135" width="40" height="16" transform="rotate(180 500 135)" fill="white"/>
<rect x="483" y="135" width="74" height="10" transform="rotate(180 483 135)" fill="white"/>
<rect x="420" y="135" width="20" height="36" transform="rotate(180 420 135)" fill="white"/>
<rect x="420" y="119" width="40" height="20" transform="rotate(180 420 119)" fill="white"/>
<rect x="380" y="135" width="60" height="16" transform="rotate(180 380 135)" fill="white"/>
<rect x="360" y="134" width="20" height="35" transform="rotate(180 360 134)" fill="white"/>
<rect x="340" y="99" width="20" height="20" transform="rotate(180 340 99)" fill="white"/>
<rect x="280" y="135" width="20" height="16" transform="rotate(180 280 135)" fill="white"/>
<rect x="260" y="119" width="20" height="20" transform="rotate(180 260 119)" fill="white"/>
<rect x="280" y="59" width="20" height="20" transform="rotate(180 280 59)" fill="white"/>
<rect x="240" y="99" width="20" height="20" transform="rotate(180 240 99)" fill="white"/>
<rect x="220" y="119" width="20" height="20" transform="rotate(180 220 119)" fill="white"/>
<rect x="200" y="135" width="20" height="16" transform="rotate(180 200 135)" fill="white"/>
<rect x="160" y="135" width="60" height="16" transform="rotate(180 160 135)" fill="white"/>
<rect x="193" y="135" width="50" height="10" transform="rotate(180 193 135)" fill="white"/>
<rect x="180" y="105" width="20" height="6" transform="rotate(180 180 105)" fill="white"/>
<rect x="160" y="99" width="20" height="20" transform="rotate(180 160 99)" fill="white"/>
<rect x="100" y="119" width="20" height="20" transform="rotate(180 100 119)" fill="white"/>
<rect x="80" y="59" width="20" height="20" transform="rotate(180 80 59)" fill="white"/>
<rect x="80" y="135" width="40" height="16" transform="rotate(180 80 135)" fill="white"/>
<rect x="40" y="135" width="40" height="20" transform="rotate(-90 40 135)" fill="white"/>
<rect x="60" y="135" width="13" height="16" transform="rotate(180 60 135)" fill="white"/>
<rect x="20" y="135" width="20" height="16" transform="rotate(180 20 135)" fill="white"/>
<rect x="20" y="135" width="20" height="36" transform="rotate(180 20 135)" fill="white"/>
<rect x="39" y="99" width="20" height="36" transform="rotate(90 39 99)" fill="white"/>
<rect x="60" y="119" width="40" height="40" transform="rotate(180 60 119)" fill="white"/>
<rect x="220" y="79" width="40" height="40" transform="rotate(180 220 79)" fill="white"/>
<rect x="380" y="79" width="40" height="20" transform="rotate(180 380 79)" fill="white"/>
<rect x="400" y="59" width="20" height="20" transform="rotate(180 400 59)" fill="white"/>
<rect x="480" y="99" width="20" height="20" transform="rotate(180 480 99)" fill="white"/>
<rect x="460" y="105" width="20" height="6" transform="rotate(180 460 105)" fill="white"/>
<rect x="440" y="85" width="20" height="6" transform="rotate(180 440 85)" fill="white"/>
<rect x="580" y="105" width="20" height="6" transform="rotate(180 580 105)" fill="white"/>
<rect x="620" y="99" width="20" height="20" transform="rotate(180 620 99)" fill="white"/>
<rect x="580" y="59" width="20" height="20" transform="rotate(180 580 59)" fill="white"/>
<rect x="560" y="79" width="20" height="20" transform="rotate(180 560 79)" fill="white"/>
<rect x="560" y="135" width="40" height="16" transform="rotate(180 560 135)" fill="white"/>
<rect x="540" y="135" width="20" height="56" transform="rotate(180 540 135)" fill="white"/>
<rect x="680" y="105" width="40" height="26" transform="rotate(180 680 105)" fill="white"/>
<rect x="700" y="85" width="25" height="6" transform="rotate(180 700 85)" fill="white"/>
<rect x="800" y="79" width="20" height="20" transform="rotate(180 800 79)" fill="white"/>
<rect x="780" y="59" width="20" height="20" transform="rotate(180 780 59)" fill="white"/>
<rect x="700" y="59" width="20" height="20" transform="rotate(180 700 59)" fill="white"/>
<rect x="740" y="85" width="20" height="6" transform="rotate(180 740 85)" fill="white"/>
<rect x="820" y="19" width="20" height="19" transform="rotate(180 820 19)" fill="white"/>
<rect x="840" y="99" width="40" height="20" transform="rotate(180 840 99)" fill="white"/>
<rect x="820" y="119" width="40" height="20" transform="rotate(-90 820 119)" fill="white"/>
<rect x="960" y="119" width="60" height="20" transform="rotate(180 960 119)" fill="white"/>
<rect x="980" y="135" width="40" height="16" transform="rotate(180 980 135)" fill="white"/>
<rect x="960" y="135" width="20" height="56" transform="rotate(180 960 135)" fill="white"/>
<rect x="1060" y="99" width="60" height="20" transform="rotate(180 1060 99)" fill="white"/>
<rect x="1040" y="119" width="40" height="40" transform="rotate(180 1040 119)" fill="white"/>
<rect x="1120" y="135" width="20" height="36" transform="rotate(180 1120 135)" fill="white"/>
<rect x="1108" y="125" width="28" height="6" transform="rotate(180 1108 125)" fill="white"/>
<rect x="1340" y="119" width="20" height="34" transform="rotate(180 1340 119)" fill="white"/>
<rect x="1300" y="120" width="40" height="29" transform="rotate(180 1300 120)" fill="white"/>
<rect x="1280" y="135" width="20" height="39" transform="rotate(180 1280 135)" fill="white"/>
<rect x="1320" y="135" width="20" height="16" transform="rotate(180 1320 135)" fill="white"/>
<rect x="1306" y="125" width="36" height="6" transform="rotate(180 1306 125)" fill="white"/>
<rect x="1340" y="99" width="80" height="20" transform="rotate(180 1340 99)" fill="white"/>
<rect x="1400" y="59" width="20" height="20" transform="rotate(180 1400 59)" fill="white"/>
<rect x="1420" y="119" width="40" height="20" transform="rotate(180 1420 119)" fill="white"/>
<rect x="1380" y="135" width="40" height="16" transform="rotate(180 1380 135)" fill="white"/>
</g>
<defs>
<clipPath id="clip0_5762_99">
<rect width="1440" height="135" fill="white" transform="matrix(-1 0 0 -1 1440 135)"/>
</clipPath>
</defs>
</svg>
