<svg width="31" height="31" viewBox="0 0 31 31" fill="none" xmlns="http://www.w3.org/2000/svg">
<g clip-path="url(#clip0_4497_1240)">
<path d="M16.3789 15.1159V21.8117L22.1776 18.4639V11.7681L16.3789 15.1159Z" fill="white"/>
<path d="M9.70117 10.2458L15.4999 13.5937L21.2986 10.2458L15.4999 6.89783L9.70117 10.2458Z" fill="white"/>
<path d="M14.621 15.1159L8.82227 11.7681V18.4639L14.621 21.8117V15.1159Z" fill="white"/>
<path d="M26.9679 5.40661C26.3359 5.40661 25.7569 5.6367 25.3092 6.01692L15.5289 0.370239L5.71336 6.03725C5.26254 5.64497 4.67437 5.40661 4.03125 5.40661C2.61609 5.40661 1.46484 6.55786 1.46484 7.97301C1.46484 9.10077 2.19639 10.0603 3.20965 10.4037V21.7077L12.9258 27.3173C12.8954 27.4749 12.879 27.6374 12.879 27.8038C12.879 29.2189 14.0302 30.3701 15.4454 30.3701C16.8605 30.3701 18.0117 29.2189 18.0117 27.8038C18.0117 27.6681 18.0009 27.5348 17.9805 27.4048L27.8481 21.7077V10.3839C28.831 10.0239 29.5343 9.07903 29.5343 7.97301C29.5343 6.55791 28.383 5.40661 26.9679 5.40661ZM26.0876 20.6914L17.125 25.866C16.6744 25.475 16.0873 25.2375 15.4453 25.2375C14.8352 25.2375 14.2745 25.4518 13.8336 25.8087L4.97022 20.6914V10.3607C5.92207 9.98506 6.5976 9.05676 6.5976 7.97301C6.5976 7.83842 6.58705 7.70629 6.56701 7.57727L15.5289 2.40309L24.4376 7.54651C24.4143 7.68532 24.4015 7.82764 24.4015 7.97301C24.4015 9.07903 25.1048 10.0239 26.0876 10.3839V20.6914Z" fill="white"/>
</g>
<defs>
<clipPath id="clip0_4497_1240">
<rect width="30" height="30" fill="white" transform="translate(0.5 0.370239)"/>
</clipPath>
</defs>
</svg>
