<svg width="516" height="501" viewBox="0 0 516 501" fill="none" xmlns="http://www.w3.org/2000/svg">
<rect width="516" height="500" transform="translate(0 0.629883)" fill="white"/>
<path d="M259.91 95.4064C216.315 95.4064 172.72 95.4064 128.877 95.4064C122.189 95.4064 115.253 95.4064 108.565 95.4064C107.575 95.4064 105.593 94.6634 105.593 94.1681C105.345 91.9392 107.327 92.4345 108.565 92.4345C139.28 92.4345 169.995 92.4345 200.71 92.4345C258.424 92.4345 315.89 92.4345 373.604 92.4345C385.742 92.4345 398.127 92.4345 410.264 92.4345C410.759 92.4345 411.502 92.1869 411.998 92.4345C412.741 92.9298 413.484 93.4251 414.227 93.9204C413.484 94.4158 412.741 95.1587 411.998 95.4064C401.594 95.4064 391.191 95.4064 381.035 95.4064C355.77 95.4064 330.505 95.4064 304.991 95.4064C290.129 95.4064 275.02 95.4064 259.91 95.4064Z" fill="black"/>
<path d="M359.98 269.259C358.741 269.259 357.503 269.259 356.264 269.259C292.11 269.259 227.956 269.259 163.801 269.259C162.563 269.259 160.086 268.268 160.086 268.02C160.334 265.544 162.563 266.535 164.049 266.535C205.167 266.535 246.286 266.535 287.651 266.535C310.688 266.535 333.971 266.535 357.007 266.535C358.741 266.287 360.723 265.792 359.98 269.259Z" fill="black"/>
<path d="M196.745 303.435C196.002 300.711 197.736 300.711 199.47 300.711C216.809 300.711 233.9 300.711 251.239 300.711C286.66 300.711 322.081 300.711 357.255 300.711C358.989 300.711 360.97 300.463 360.227 303.435C305.733 303.435 251.239 303.435 196.745 303.435Z" fill="black"/>
<path d="M315.147 404.23C329.018 404.23 342.889 404.23 356.76 404.23C357.751 404.23 358.494 404.23 359.485 404.477C359.98 404.725 360.228 405.468 360.476 405.963C360.476 406.211 359.98 406.954 359.485 406.954C358.742 407.202 357.999 407.202 357.256 407.202C329.266 407.202 301.028 407.202 273.038 407.202C272.79 407.202 272.295 407.202 272.047 407.202C271.056 406.706 270.313 406.211 269.322 405.716C270.313 405.22 271.304 404.23 272.047 404.23C286.166 404.23 300.532 404.23 315.147 404.23Z" fill="black"/>
<path d="M142.004 404.23C152.655 404.23 163.554 404.23 174.205 404.23C174.948 404.23 175.691 403.982 176.186 404.23C176.929 404.477 177.425 405.22 178.168 405.963C177.425 406.459 176.929 407.202 176.186 407.202C169.994 407.202 164.049 407.202 157.856 407.202C141.261 407.202 124.665 407.202 108.316 407.202C107.326 407.202 105.839 406.459 105.592 405.963C105.344 403.982 107.078 404.23 108.316 404.23C119.215 404.23 130.114 404.23 140.765 404.23C141.261 404.23 141.756 404.23 142.004 404.23Z" fill="black"/>
<path d="M406.796 103.331C406.548 104.074 406.301 104.569 406.301 105.065C406.301 106.055 406.548 107.046 406.796 107.789C407.539 107.294 408.53 106.798 409.273 106.055C409.768 105.56 409.768 104.569 410.264 103.826C410.759 103.331 411.502 103.084 412.493 102.341C412.493 103.579 412.493 104.322 412.493 104.817C412.245 106.303 411.998 107.789 414.227 108.037C414.475 108.037 415.218 108.78 415.218 109.275C415.218 109.77 414.475 110.265 414.227 110.265C410.264 110.018 410.512 112.742 410.264 115.466C411.255 115.714 412.245 115.714 414.227 116.209C413.236 117.2 412.741 118.19 412.245 118.19C409.025 117.943 408.778 120.172 408.282 122.153C408.035 123.886 407.291 124.877 404.814 124.134C405.062 123.143 405.558 122.153 405.558 121.162C405.558 120.172 405.31 119.181 405.062 118.438C404.319 119.181 403.328 119.676 402.585 120.667C402.09 121.41 402.09 122.4 401.842 123.143C401.594 123.639 400.851 124.134 400.356 124.629C400.108 124.134 399.613 123.391 399.613 122.896C399.613 122.153 399.613 121.41 399.86 120.915C400.108 119.676 400.108 118.686 398.374 118.438C397.879 118.438 397.383 117.695 397.136 117.2C397.383 116.952 397.879 116.209 398.127 116.209C402.337 116.704 401.842 113.485 402.337 111.256C401.842 111.008 401.594 111.008 401.347 111.008C400.356 110.513 399.613 110.018 398.622 109.523C399.365 109.027 400.356 108.78 401.099 108.284C402.09 107.541 403.328 106.551 403.576 105.312C403.824 103.084 404.567 102.588 406.796 103.331ZM407.787 111.008C406.796 111.008 405.805 111.008 404.814 111.008C404.319 112.742 403.824 114.228 403.576 115.714C407.044 116.209 407.044 116.209 407.787 111.008Z" fill="black"/>
<path d="M114.014 124.382C114.261 123.144 114.509 122.153 114.261 120.915C114.261 120.172 113.766 119.429 113.518 118.686C112.775 119.181 111.784 119.676 111.289 120.419C110.794 121.41 110.546 122.896 110.051 123.886C109.803 124.382 109.06 124.629 108.317 124.382C108.069 124.382 107.574 123.391 107.821 122.896C108.069 121.41 108.564 120.172 108.812 119.181C107.326 118.19 106.335 117.695 105.344 116.952C105.592 116.705 105.592 116.457 105.84 116.209C107.078 115.962 108.564 115.962 109.803 115.714C110.298 114.228 110.546 112.494 111.041 111.009C111.041 111.009 110.794 110.761 110.794 110.513C109.803 110.018 108.812 109.523 107.574 109.027C108.564 108.532 109.555 108.284 110.298 107.541C111.289 106.798 111.784 105.808 112.528 104.817C113.271 103.827 114.014 103.084 114.509 102.093C114.757 102.341 115.252 102.341 115.5 102.588C115.5 103.579 115.252 104.322 115.252 105.313C115.252 106.055 115.5 106.551 115.748 107.294C116.491 107.046 117.482 106.798 117.977 106.303C118.472 105.808 118.72 104.817 118.968 104.074C119.215 102.093 120.206 101.845 121.94 102.588C121.692 104.57 119.711 107.046 123.674 107.541C123.922 107.541 124.417 108.284 124.417 108.532C124.169 109.027 123.922 109.523 123.426 109.77C122.436 110.018 121.445 110.018 120.206 110.018C119.711 111.751 119.463 113.237 118.968 114.971C120.206 115.219 121.197 115.219 122.683 115.466C122.188 116.209 121.692 117.448 121.445 117.448C117.729 117.2 117.729 119.924 116.986 122.401C116.738 123.144 115.748 123.639 115.005 124.134C114.509 124.629 114.261 124.629 114.014 124.382ZM112.528 115.466C115.995 116.457 116.491 115.466 116.243 110.761C112.28 110.266 113.766 113.98 112.528 115.466Z" fill="black"/>
<path d="M186.59 393.333C186.59 389.123 186.59 384.913 186.59 380.703C186.59 379.96 187.333 379.217 187.581 378.226C188.324 378.969 189.315 379.712 189.315 380.455C189.562 389.123 189.562 397.791 189.315 406.459C189.315 407.202 188.324 407.945 187.581 408.935C187.085 408.192 186.342 407.202 186.342 406.459C186.59 402.001 186.59 397.791 186.59 393.333Z" fill="black"/>
<path d="M232.663 338.106C227.461 338.106 222.259 338.106 217.057 338.106C216.314 338.106 215.571 337.363 214.828 336.868C215.571 336.373 216.314 335.134 217.057 335.134C227.709 335.134 238.112 335.134 248.763 335.134C249.754 335.134 250.497 336.125 251.488 336.62C250.497 337.116 249.754 337.859 248.763 337.859C243.314 338.354 237.864 338.106 232.663 338.106Z" fill="black"/>
<path d="M215.076 407.202C214.333 404.973 215.076 404.23 217.057 404.23C227.461 404.23 237.864 404.23 248.267 404.23C249.258 404.23 250.249 404.973 251.488 405.22C251.488 405.468 251.488 405.963 251.488 406.211C250.744 406.459 250.001 406.954 249.258 406.954C237.864 407.202 226.47 407.202 215.076 407.202Z" fill="black"/>
<path d="M208.14 393.828C208.14 397.791 208.14 401.753 208.14 405.716C208.14 406.706 207.892 407.697 207.397 408.44C207.149 408.688 205.663 408.44 205.415 407.945C205.167 407.202 205.167 405.963 205.167 404.973C205.167 397.048 205.167 389.123 205.167 380.95C205.167 379.96 205.911 379.217 206.406 378.226C206.901 379.217 207.892 379.96 207.892 380.95C208.14 385.408 208.14 389.618 208.14 393.828Z" fill="black"/>
<path d="M204.92 358.909C204.92 354.947 204.92 350.737 204.92 346.774C204.92 345.784 205.663 344.793 206.158 343.555C206.654 344.545 207.645 345.784 207.892 346.774C208.14 350.489 207.892 354.451 207.892 358.166C207.892 362.376 207.892 366.586 207.892 370.797C207.892 371.787 206.902 372.778 206.158 373.768C205.663 372.778 204.92 372.035 204.92 371.044C204.92 367.329 204.92 363.119 204.92 358.909Z" fill="black"/>
<path d="M396.392 407.201C391.19 407.201 386.236 407.201 381.035 407.201C380.292 407.201 379.301 406.458 378.558 405.963C379.301 405.468 380.292 404.477 381.035 404.477C391.438 404.477 401.594 404.477 411.997 404.477C412.74 404.477 413.731 405.468 414.474 406.211C413.731 406.706 412.74 407.449 411.997 407.449C406.795 407.201 401.594 407.201 396.392 407.201Z" fill="black"/>
<path d="M186.59 358.909C186.59 354.947 186.59 350.984 186.59 347.022C186.59 345.784 187.333 344.793 187.829 343.555C188.324 344.793 189.315 346.031 189.563 347.269C189.81 351.727 189.563 356.185 189.563 360.643C189.563 364.11 189.81 367.825 189.563 371.292C189.563 372.282 188.572 373.273 187.829 374.264C187.333 373.273 186.59 372.282 186.59 371.539C186.59 367.329 186.59 363.119 186.59 358.909Z" fill="black"/>
<path d="M186.59 324.733C186.59 320.523 186.59 316.313 186.59 312.103C186.59 311.112 187.333 310.369 187.829 309.626C188.324 310.617 189.563 311.36 189.563 312.35C189.81 320.77 189.563 329.191 189.563 337.611C189.563 338.354 188.572 339.344 187.829 340.087C187.333 339.344 186.59 338.354 186.59 337.611C186.59 333.153 186.59 328.943 186.59 324.733Z" fill="black"/>
<path d="M422.896 290.062C422.896 285.851 422.896 281.394 422.896 277.184C422.896 276.441 423.887 275.698 424.382 274.707C424.878 275.45 425.868 276.441 425.868 277.184C425.868 285.851 425.868 294.519 425.868 303.187C425.868 303.93 424.878 304.673 424.382 305.664C423.887 304.921 423.144 303.93 422.896 303.187C422.896 298.729 422.896 294.519 422.896 290.062Z" fill="black"/>
<path d="M262.139 393.581C262.139 398.038 262.139 402.496 262.139 406.706C262.139 407.449 261.396 408.192 261.148 408.688C260.653 407.945 259.414 407.449 259.414 406.706C259.414 397.791 259.414 388.875 259.414 379.96C259.414 379.217 260.653 378.721 261.148 377.979C261.396 378.721 262.139 379.464 262.139 379.96C262.386 384.913 262.139 389.371 262.139 393.581Z" fill="black"/>
<path d="M371.127 393.828C371.127 398.038 371.127 402.496 371.127 406.706C371.127 407.449 370.383 408.192 370.136 408.935C369.64 408.192 368.402 407.449 368.402 406.706C368.402 398.038 368.402 389.123 368.402 380.455C368.402 379.712 369.393 378.969 369.888 378.226C370.383 378.969 371.127 379.712 371.127 380.455C371.127 384.913 371.127 389.371 371.127 393.828Z" fill="black"/>
<path d="M426.116 393.581C426.116 397.791 426.116 402.001 426.116 406.211C426.116 407.201 425.126 407.944 424.63 408.935C424.135 407.944 423.144 407.201 423.144 406.211C423.144 397.791 423.144 389.37 423.144 380.95C423.144 380.207 423.887 379.217 424.383 378.474C424.878 379.217 425.869 380.207 426.116 380.95C426.116 385.16 426.116 389.37 426.116 393.581Z" fill="black"/>
<path d="M422.896 185.552C422.896 181.342 422.896 176.884 422.896 172.674C422.896 171.931 423.887 171.188 424.382 170.445C424.878 171.188 425.868 171.931 425.868 172.674C425.868 181.342 425.868 190.258 425.868 198.925C425.868 199.668 424.878 200.411 424.382 201.154C423.887 200.411 422.896 199.668 422.896 198.678C422.896 194.22 422.896 189.762 422.896 185.552Z" fill="black"/>
<path d="M422.896 373.768C422.896 364.357 422.896 355.194 422.896 345.783C422.896 345.04 423.639 344.545 424.134 343.802C424.63 344.545 425.621 345.04 425.868 345.783C426.116 348.755 425.868 351.975 425.868 354.947C425.868 360.643 425.868 366.091 425.868 371.787C426.116 374.016 425.373 374.511 422.896 373.768Z" fill="black"/>
<path d="M422.896 116.457C422.896 112.247 422.896 107.789 422.896 103.579C422.896 102.836 423.887 102.093 424.382 101.598C424.878 102.34 425.868 102.836 425.868 103.579C425.868 112.247 425.868 121.162 425.868 129.83C425.868 130.573 424.878 131.316 424.382 131.811C423.887 131.068 422.896 130.325 422.896 129.582C422.896 125.125 422.896 120.667 422.896 116.457Z" fill="black"/>
<path d="M426.117 150.881C426.117 155.091 426.117 159.301 426.117 163.511C426.117 164.254 425.374 165.74 424.631 165.74C422.897 165.988 423.145 164.502 423.145 163.263C423.145 154.843 423.145 146.423 423.145 137.755C423.145 137.012 423.888 136.022 424.383 135.279C424.878 136.022 425.869 137.012 425.869 137.755C426.117 142.461 426.117 146.671 426.117 150.881Z" fill="black"/>
<path d="M422.896 220.223C422.896 216.013 422.896 211.803 422.896 207.593C422.896 206.602 423.887 205.86 424.382 205.117C424.878 205.86 425.868 206.602 425.868 207.593C425.868 216.261 425.868 224.681 425.868 233.349C425.868 234.092 424.878 234.835 424.382 235.578C423.887 234.835 423.144 234.092 423.144 233.101C422.896 228.644 422.896 224.434 422.896 220.223Z" fill="black"/>
<path d="M422.896 270.249C422.896 260.838 422.896 251.428 422.896 242.017C422.896 241.521 423.887 240.779 424.134 240.283C424.63 241.026 425.621 241.521 425.621 242.264C425.868 245.484 425.621 248.456 425.621 251.675C425.621 257.124 425.621 262.82 425.621 268.268C426.116 270.249 425.373 270.992 422.896 270.249Z" fill="black"/>
<path d="M426.116 324.981C426.116 329.191 426.116 333.153 426.116 337.363C426.116 338.106 425.125 339.097 424.63 339.84C424.134 339.097 423.391 338.106 423.391 337.363C423.391 328.943 423.391 320.523 423.391 311.855C423.391 311.112 424.382 310.121 424.877 309.379C425.373 310.121 426.364 311.112 426.364 311.855C426.116 316.313 426.116 320.523 426.116 324.981Z" fill="black"/>
<path d="M261.891 374.016C259.909 374.511 259.166 373.768 259.166 372.035C259.166 363.615 259.166 354.947 259.166 346.527C259.166 345.536 260.157 344.545 260.652 343.555C260.9 343.802 261.395 343.802 261.643 344.05C261.891 353.956 261.891 363.862 261.891 374.016Z" fill="black"/>
<path d="M370.383 340.583C369.392 339.344 368.401 338.601 368.401 337.859C368.153 329.191 368.153 320.523 368.401 311.855C368.401 311.112 369.392 310.369 370.135 309.626C370.63 310.121 371.126 310.864 371.126 311.36C371.126 320.523 371.126 329.934 371.126 339.097C371.126 339.097 370.878 339.344 370.383 340.583Z" fill="black"/>
<path d="M370.631 343.802C370.631 344.545 370.879 345.041 370.879 345.784C370.879 354.452 370.879 363.367 370.879 372.035C370.879 372.778 370.136 373.273 369.888 374.016C369.393 373.273 368.154 372.53 368.154 371.787C368.154 363.119 367.906 354.699 368.154 346.031C368.154 345.041 369.145 344.05 369.888 343.307C370.136 343.555 370.383 343.802 370.631 343.802Z" fill="black"/>
<path d="M103.115 403.734C101.134 405.22 100.143 404.23 99.3996 402.744C96.1795 395.81 92.9594 388.875 89.7393 381.941C89.4916 381.198 89.7393 380.207 89.987 379.217C90.7301 379.464 91.9686 379.712 92.464 380.455C96.1795 388.38 99.6473 396.057 103.115 403.734Z" fill="black"/>
<path d="M98.4091 290.309C98.4091 294.519 98.4091 298.977 98.4091 303.187C98.4091 303.93 97.666 304.673 97.1706 305.416C96.6752 304.673 95.9321 303.93 95.9321 303.187C95.9321 294.519 95.9321 285.851 95.9321 277.184C95.9321 276.441 96.6752 275.698 97.1706 274.707C97.666 275.45 98.4091 276.441 98.4091 277.184C98.4091 281.641 98.4091 285.851 98.4091 290.309Z" fill="black"/>
<path d="M98.4091 185.552C98.4091 189.762 98.4091 194.22 98.4091 198.43C98.4091 199.173 97.666 199.916 97.1706 200.659C96.6752 199.916 95.9321 199.173 95.9321 198.43C95.9321 189.762 95.9321 181.094 95.9321 172.427C95.9321 171.684 96.6752 170.941 97.1706 170.198C97.666 170.941 98.4091 171.684 98.4091 172.427C98.4091 176.884 98.4091 181.342 98.4091 185.552Z" fill="black"/>
<path d="M95.932 116.457C95.932 112.247 95.932 108.284 95.932 104.074C95.932 103.084 96.6751 102.341 97.1705 101.35C97.6659 102.093 98.409 102.836 98.409 103.827C98.409 112.247 98.409 120.915 98.409 129.335C98.409 130.078 97.6659 130.821 97.4182 131.564C96.9228 130.821 96.1797 129.83 96.1797 129.087C95.6843 124.877 95.932 120.667 95.932 116.457Z" fill="black"/>
<path d="M98.4091 220.223C98.4091 224.434 98.4091 228.891 98.4091 233.101C98.4091 233.844 97.666 234.587 97.1706 235.33C96.6752 234.587 95.9321 234.092 95.9321 233.349C95.9321 224.681 95.9321 216.013 95.9321 207.098C95.9321 206.355 96.9229 205.612 97.1706 205.117C97.666 205.86 98.1614 206.602 98.1614 207.345C98.4091 211.556 98.4091 215.766 98.4091 220.223Z" fill="black"/>
<path d="M98.4095 151.128C98.4095 155.338 98.4095 159.548 98.4095 163.759C98.4095 164.502 97.6664 165.244 97.4187 165.987C96.9233 165.244 96.1802 164.502 96.1802 163.511C96.1802 155.091 96.1802 146.671 96.1802 138.25C96.1802 137.26 96.9233 136.517 97.4187 135.526C97.9141 136.517 98.6572 137.26 98.6572 138.25C98.4095 142.708 98.4095 146.918 98.4095 151.128Z" fill="black"/>
<path d="M98.4091 255.638C98.4091 259.848 98.4091 264.306 98.4091 268.516C98.4091 269.259 97.666 270.002 97.1706 270.745C96.6752 270.002 95.9321 269.259 95.9321 268.516C95.9321 259.848 95.9321 251.18 95.9321 242.512C95.9321 241.769 96.6752 241.026 97.1706 240.283C97.666 241.026 98.4091 241.769 98.4091 242.512C98.4091 246.97 98.4091 251.18 98.4091 255.638Z" fill="black"/>
<path d="M98.4091 324.733C98.4091 328.943 98.4091 333.401 98.4091 337.611C98.4091 338.354 97.666 339.097 97.1706 339.84C96.6752 339.097 95.9321 338.354 95.9321 337.611C95.9321 328.943 95.9321 320.275 95.9321 311.607C95.9321 310.864 96.6752 310.121 97.1706 309.379C97.666 310.121 98.4091 310.864 98.4091 311.607C98.4091 316.065 98.4091 320.275 98.4091 324.733Z" fill="black"/>
<path d="M98.4091 358.909C98.4091 363.119 98.4091 367.577 98.4091 371.787C98.4091 372.53 97.666 373.273 97.1706 374.016C96.6752 373.273 95.9321 372.53 95.9321 371.787C95.9321 363.119 95.9321 354.451 95.9321 345.784C95.9321 345.041 96.6752 344.298 97.1706 343.555C97.666 344.298 98.4091 345.041 98.4091 345.784C98.4091 350.489 98.4091 354.699 98.4091 358.909Z" fill="black"/>
<path d="M153.151 179.608C153.399 181.59 152.656 182.828 150.426 182.828C148.197 182.828 147.949 181.59 147.949 179.856C147.949 177.875 148.445 176.884 150.426 176.884C152.408 176.637 153.646 177.38 153.151 179.608Z" fill="black"/>
<path d="M153.151 228.148C151.417 228.148 149.931 228.148 148.197 228.148C148.197 226.415 148.197 224.929 148.197 222.948C149.683 222.948 151.417 222.948 153.151 222.948C153.151 224.681 153.151 226.167 153.151 228.148Z" fill="black"/>
<path d="M153.151 110.513C153.399 112.494 152.903 113.733 150.674 113.733C148.692 113.733 147.949 112.99 147.949 111.009C147.949 109.275 148.197 108.037 150.426 108.037C152.16 108.037 153.646 108.284 153.151 110.513Z" fill="black"/>
<path d="M153.151 119.676C153.151 121.162 153.151 122.648 153.151 124.382C151.417 124.382 149.931 124.382 148.445 124.382C147.454 119.181 148.197 118.191 153.151 119.676Z" fill="black"/>
<path d="M153.151 249.694C153.646 251.923 152.655 252.666 150.674 252.666C148.692 252.666 147.949 251.923 147.949 249.694C147.949 247.713 148.445 246.722 150.674 246.722C152.655 246.97 153.646 247.713 153.151 249.694Z" fill="black"/>
<path d="M153.151 145.185C153.646 147.166 152.655 148.156 150.674 148.156C148.692 148.156 147.949 147.413 147.949 145.432C147.949 143.699 148.197 142.46 150.426 142.46C152.408 142.213 153.399 142.956 153.151 145.185Z" fill="black"/>
<path d="M153.151 214.032C153.399 216.013 152.655 217.004 150.674 217.004C148.692 217.004 147.949 216.261 147.949 214.28C147.949 212.546 148.197 211.308 150.426 211.308C152.408 211.308 153.646 212.051 153.151 214.032Z" fill="black"/>
<path d="M371.127 179.608C371.374 181.59 371.127 182.828 368.65 182.828C366.173 182.828 366.42 181.094 366.42 179.608C366.42 177.875 366.668 176.637 368.897 176.637C371.127 176.637 371.374 178.123 371.127 179.608Z" fill="black"/>
<path d="M153.151 258.61C153.151 260.343 153.151 261.829 153.151 263.563C151.665 263.563 150.178 263.81 148.197 263.81C148.197 262.077 148.197 260.343 148.197 258.61C149.683 258.61 151.417 258.61 153.151 258.61Z" fill="black"/>
<path d="M153.151 188.772C153.151 190.258 153.151 191.744 153.151 193.477C151.665 193.477 150.179 193.477 148.445 193.477C147.454 188.276 148.197 187.286 153.151 188.772Z" fill="black"/>
<path d="M148.197 159.053C148.197 157.32 148.197 155.834 148.197 154.1C149.931 154.1 151.417 154.1 153.151 154.1C153.151 155.834 153.151 157.32 153.151 159.053C151.417 159.053 149.931 159.053 148.197 159.053Z" fill="black"/>
<path d="M371.374 125.125C369.145 124.629 367.163 124.629 366.668 123.639C365.925 122.648 366.173 120.667 366.916 119.429C367.163 118.933 370.136 118.686 370.136 118.933C370.879 120.915 371.127 122.648 371.374 125.125Z" fill="black"/>
<path d="M370.879 228.148C369.145 228.148 368.155 228.148 366.916 228.148C365.678 222.948 366.421 221.957 370.879 223.195C370.879 224.681 370.879 226.415 370.879 228.148Z" fill="black"/>
<path d="M371.126 110.761C371.373 112.495 371.126 113.485 368.896 113.733C366.419 113.733 366.419 112.247 366.419 110.761C366.419 109.027 366.915 108.037 368.896 108.037C371.126 107.789 371.126 109.275 371.126 110.761Z" fill="black"/>
<path d="M371.126 214.28C371.373 216.013 371.126 217.252 368.896 217.252C366.667 217.252 366.419 216.261 366.419 214.527C366.419 212.794 366.667 211.556 368.896 211.556C371.126 211.308 371.126 212.794 371.126 214.28Z" fill="black"/>
<path d="M371.126 249.694C371.374 251.428 371.126 252.666 368.897 252.666C366.667 252.666 366.172 251.675 366.42 249.694C366.42 248.208 366.42 246.97 368.649 246.722C370.878 246.722 371.374 247.961 371.126 249.694Z" fill="black"/>
<path d="M371.126 145.185C371.373 146.671 371.126 148.156 368.896 148.156C366.667 148.156 366.419 147.166 366.419 145.185C366.419 143.451 366.667 142.213 368.896 142.213C371.126 142.213 371.126 143.699 371.126 145.185Z" fill="black"/>
<path d="M371.126 153.853C371.126 155.834 371.126 157.32 371.126 159.053C369.64 159.053 368.402 159.053 366.916 159.053C366.916 157.567 366.916 155.834 366.916 153.853C367.906 153.853 369.393 153.853 371.126 153.853Z" fill="black"/>
<path d="M366.667 263.563C366.667 261.829 366.667 260.096 366.667 258.362C368.154 258.362 369.392 258.362 370.878 258.362C370.878 260.096 370.878 261.829 370.878 263.563C369.64 263.563 368.401 263.563 366.667 263.563Z" fill="black"/>
<path d="M370.878 188.276C370.878 190.01 370.878 191.744 370.878 193.477C369.392 193.477 368.154 193.477 366.667 193.477C366.667 191.744 366.667 190.01 366.667 188.276C368.154 188.276 369.392 188.276 370.878 188.276Z" fill="black"/>
<path d="M188.548 162.432H188.711V153.378H189.857V162.923H187.566L184.812 153.869H184.648V162.923H183.503V153.378H185.794L188.548 162.432Z" fill="black"/>
<path d="M196.951 161.777H196.787C196.569 162.232 196.265 162.568 195.874 162.786C195.492 163.004 195.088 163.113 194.66 163.113C194.215 163.113 193.801 163.041 193.42 162.895C193.038 162.741 192.702 162.518 192.411 162.227C192.129 161.927 191.906 161.564 191.743 161.136C191.579 160.709 191.497 160.214 191.497 159.65V159.432C191.497 158.878 191.579 158.387 191.743 157.959C191.906 157.532 192.129 157.173 192.411 156.882C192.702 156.582 193.038 156.355 193.42 156.201C193.801 156.046 194.206 155.969 194.633 155.969C195.097 155.969 195.515 156.073 195.888 156.282C196.269 156.482 196.569 156.796 196.787 157.223H196.951V156.16H198.015V161.532C198.015 161.805 198.137 161.941 198.383 161.941H198.724V162.923H198.001C197.692 162.923 197.437 162.823 197.237 162.623C197.047 162.423 196.951 162.168 196.951 161.859V161.777ZM194.77 162.105C195.088 162.105 195.379 162.045 195.642 161.927C195.915 161.809 196.147 161.641 196.338 161.423C196.528 161.205 196.678 160.946 196.787 160.646C196.897 160.337 196.951 159.996 196.951 159.623V159.459C196.951 159.096 196.897 158.764 196.787 158.464C196.678 158.155 196.524 157.891 196.324 157.673C196.133 157.455 195.901 157.287 195.629 157.169C195.365 157.041 195.079 156.978 194.77 156.978C194.451 156.978 194.16 157.037 193.897 157.155C193.633 157.273 193.401 157.441 193.201 157.66C193.011 157.869 192.861 158.128 192.752 158.437C192.642 158.737 192.588 159.068 192.588 159.432V159.65C192.588 160.423 192.788 161.027 193.188 161.464C193.597 161.891 194.124 162.105 194.77 162.105Z" fill="black"/>
<path d="M206.895 162.923H205.832V158.069C205.832 157.75 205.759 157.491 205.613 157.291C205.468 157.082 205.236 156.978 204.918 156.978C204.618 156.978 204.373 157.091 204.182 157.319C204 157.537 203.909 157.878 203.909 158.341V162.923H202.846V158.014C202.846 157.714 202.764 157.469 202.6 157.278C202.436 157.078 202.218 156.978 201.946 156.978C201.618 156.978 201.364 157.096 201.182 157.332C201.009 157.569 200.923 157.878 200.923 158.259V162.923H199.859V156.16H200.923V156.896H201.087C201.205 156.578 201.377 156.346 201.605 156.201C201.832 156.046 202.1 155.969 202.409 155.969C202.736 155.969 203.005 156.055 203.214 156.228C203.432 156.401 203.582 156.623 203.664 156.896H203.827C204.136 156.278 204.627 155.969 205.3 155.969C205.809 155.969 206.2 156.132 206.472 156.46C206.754 156.778 206.895 157.196 206.895 157.714V162.923Z" fill="black"/>
<path d="M209.517 159.868C209.544 160.541 209.753 161.082 210.144 161.491C210.535 161.9 211.081 162.105 211.781 162.105C212.099 162.105 212.376 162.068 212.612 161.995C212.849 161.923 213.049 161.823 213.212 161.695C213.385 161.568 213.521 161.423 213.621 161.259C213.73 161.086 213.817 160.905 213.88 160.714L214.889 160.986C214.698 161.614 214.344 162.127 213.826 162.527C213.317 162.918 212.626 163.113 211.753 163.113C211.271 163.113 210.826 163.032 210.417 162.868C210.017 162.695 209.672 162.454 209.381 162.145C209.09 161.836 208.863 161.468 208.699 161.041C208.535 160.614 208.454 160.141 208.454 159.623V159.296C208.454 158.823 208.535 158.382 208.699 157.973C208.872 157.564 209.108 157.214 209.408 156.923C209.708 156.623 210.058 156.391 210.458 156.228C210.867 156.055 211.308 155.969 211.781 155.969C212.335 155.969 212.812 156.073 213.212 156.282C213.621 156.482 213.953 156.732 214.208 157.032C214.471 157.332 214.662 157.66 214.78 158.014C214.907 158.369 214.971 158.696 214.971 158.996V159.868H209.517ZM211.781 156.978C211.481 156.978 211.199 157.028 210.935 157.128C210.681 157.219 210.453 157.35 210.253 157.523C210.063 157.696 209.903 157.9 209.776 158.137C209.658 158.364 209.581 158.614 209.544 158.887H213.908C213.889 158.596 213.817 158.332 213.689 158.096C213.571 157.86 213.412 157.66 213.212 157.496C213.021 157.332 212.799 157.205 212.544 157.114C212.299 157.023 212.044 156.978 211.781 156.978Z" fill="black"/>
<path d="M219.12 162.159C219.12 161.895 219.211 161.673 219.393 161.491C219.584 161.3 219.811 161.205 220.075 161.205C220.338 161.205 220.561 161.3 220.743 161.491C220.934 161.673 221.029 161.895 221.029 162.159C221.029 162.423 220.934 162.65 220.743 162.841C220.561 163.023 220.338 163.113 220.075 163.113C219.811 163.113 219.584 163.023 219.393 162.841C219.211 162.65 219.12 162.423 219.12 162.159ZM219.12 156.923C219.12 156.66 219.211 156.437 219.393 156.255C219.584 156.064 219.811 155.969 220.075 155.969C220.338 155.969 220.561 156.064 220.743 156.255C220.934 156.437 221.029 156.66 221.029 156.923C221.029 157.187 220.934 157.414 220.743 157.605C220.561 157.787 220.338 157.878 220.075 157.878C219.811 157.878 219.584 157.787 219.393 157.605C219.211 157.414 219.12 157.187 219.12 156.923Z" fill="black"/>
<path d="M233.227 153.378H235.409L236.69 162.432H236.854L238.136 153.378H240.317V162.923H239.254V153.869H239.09L237.808 162.923H235.736L234.454 153.869H234.291V162.923H233.227V153.378Z" fill="black"/>
<path d="M247.043 161.695H246.88C246.662 162.132 246.375 162.477 246.021 162.732C245.666 162.986 245.216 163.113 244.671 163.113C244.298 163.113 243.953 163.05 243.635 162.923C243.326 162.804 243.057 162.623 242.83 162.377C242.612 162.132 242.439 161.827 242.312 161.464C242.194 161.1 242.135 160.677 242.135 160.196V156.16H243.198V160.059C243.198 160.768 243.344 161.286 243.635 161.614C243.926 161.941 244.371 162.105 244.971 162.105C245.616 162.105 246.121 161.886 246.484 161.45C246.857 161.005 247.043 160.414 247.043 159.677V156.16H248.107V164.586C248.107 164.895 248.007 165.15 247.807 165.35C247.616 165.55 247.366 165.65 247.057 165.65H243.198V164.668H246.675C246.921 164.668 247.043 164.532 247.043 164.259V161.695Z" fill="black"/>
<path d="M258.641 153.378H261.777C262.959 153.378 263.823 153.66 264.368 154.224C264.913 154.787 265.186 155.687 265.186 156.923V159.378C265.186 160.614 264.913 161.514 264.368 162.077C263.823 162.641 262.959 162.923 261.777 162.923H258.641V161.845H259.459V154.442H258.641V153.378ZM261.614 161.859C262.032 161.859 262.391 161.818 262.691 161.736C263 161.655 263.254 161.518 263.454 161.327C263.654 161.127 263.8 160.864 263.891 160.536C263.991 160.209 264.041 159.796 264.041 159.296V157.005C264.041 156.505 263.991 156.092 263.891 155.764C263.8 155.437 263.654 155.178 263.454 154.987C263.254 154.787 263 154.646 262.691 154.564C262.391 154.483 262.032 154.442 261.614 154.442H260.605V161.859H261.614Z" fill="black"/>
<path d="M272.089 161.777H271.926C271.708 162.232 271.403 162.568 271.012 162.786C270.631 163.004 270.226 163.113 269.799 163.113C269.353 163.113 268.94 163.041 268.558 162.895C268.176 162.741 267.84 162.518 267.549 162.227C267.267 161.927 267.045 161.564 266.881 161.136C266.717 160.709 266.636 160.214 266.636 159.65V159.432C266.636 158.878 266.717 158.387 266.881 157.959C267.045 157.532 267.267 157.173 267.549 156.882C267.84 156.582 268.176 156.355 268.558 156.201C268.94 156.046 269.344 155.969 269.772 155.969C270.235 155.969 270.653 156.073 271.026 156.282C271.408 156.482 271.708 156.796 271.926 157.223H272.089V156.16H273.153V161.532C273.153 161.805 273.276 161.941 273.521 161.941H273.862V162.923H273.139C272.83 162.923 272.576 162.823 272.376 162.623C272.185 162.423 272.089 162.168 272.089 161.859V161.777ZM269.908 162.105C270.226 162.105 270.517 162.045 270.781 161.927C271.053 161.809 271.285 161.641 271.476 161.423C271.667 161.205 271.817 160.946 271.926 160.646C272.035 160.337 272.089 159.996 272.089 159.623V159.459C272.089 159.096 272.035 158.764 271.926 158.464C271.817 158.155 271.662 157.891 271.462 157.673C271.271 157.455 271.04 157.287 270.767 157.169C270.503 157.041 270.217 156.978 269.908 156.978C269.59 156.978 269.299 157.037 269.035 157.155C268.772 157.273 268.54 157.441 268.34 157.66C268.149 157.869 267.999 158.128 267.89 158.437C267.781 158.737 267.726 159.068 267.726 159.432V159.65C267.726 160.423 267.926 161.027 268.326 161.464C268.735 161.891 269.263 162.105 269.908 162.105Z" fill="black"/>
<path d="M275.298 156.16H277.425V153.378H278.488V156.16H281.106V157.141H278.488V161.532C278.488 161.805 278.611 161.941 278.857 161.941H280.779V162.923H278.475C278.166 162.923 277.911 162.823 277.711 162.623C277.52 162.423 277.425 162.168 277.425 161.859V157.141H275.298V156.16Z" fill="black"/>
<path d="M288.787 161.777H288.623C288.405 162.232 288.101 162.568 287.71 162.786C287.328 163.004 286.923 163.113 286.496 163.113C286.051 163.113 285.637 163.041 285.255 162.895C284.874 162.741 284.537 162.518 284.246 162.227C283.965 161.927 283.742 161.564 283.578 161.136C283.415 160.709 283.333 160.214 283.333 159.65V159.432C283.333 158.878 283.415 158.387 283.578 157.959C283.742 157.532 283.965 157.173 284.246 156.882C284.537 156.582 284.874 156.355 285.255 156.201C285.637 156.046 286.042 155.969 286.469 155.969C286.933 155.969 287.351 156.073 287.723 156.282C288.105 156.482 288.405 156.796 288.623 157.223H288.787V156.16H289.85V161.532C289.85 161.805 289.973 161.941 290.219 161.941H290.559V162.923H289.837C289.528 162.923 289.273 162.823 289.073 162.623C288.882 162.423 288.787 162.168 288.787 161.859V161.777ZM286.605 162.105C286.923 162.105 287.214 162.045 287.478 161.927C287.751 161.809 287.982 161.641 288.173 161.423C288.364 161.205 288.514 160.946 288.623 160.646C288.732 160.337 288.787 159.996 288.787 159.623V159.459C288.787 159.096 288.732 158.764 288.623 158.464C288.514 158.155 288.36 157.891 288.16 157.673C287.969 157.455 287.737 157.287 287.464 157.169C287.201 157.041 286.914 156.978 286.605 156.978C286.287 156.978 285.996 157.037 285.733 157.155C285.469 157.273 285.237 157.441 285.037 157.66C284.846 157.869 284.696 158.128 284.587 158.437C284.478 158.737 284.424 159.068 284.424 159.432V159.65C284.424 160.423 284.624 161.027 285.024 161.464C285.433 161.891 285.96 162.105 286.605 162.105Z" fill="black"/>
<path d="M188.93 186.595C188.93 186.286 188.866 186.013 188.739 185.777C188.621 185.54 188.457 185.345 188.248 185.19C188.039 185.036 187.798 184.918 187.525 184.836C187.252 184.754 186.966 184.713 186.666 184.713C186.403 184.713 186.153 184.749 185.916 184.822C185.68 184.886 185.466 184.981 185.275 185.108C185.094 185.236 184.948 185.395 184.839 185.586C184.73 185.767 184.675 185.981 184.675 186.227V186.308C184.675 186.572 184.73 186.799 184.839 186.99C184.948 187.172 185.107 187.331 185.316 187.467C185.534 187.595 185.803 187.704 186.121 187.795C186.439 187.876 186.812 187.949 187.239 188.013C188.239 188.167 188.975 188.463 189.448 188.899C189.92 189.326 190.157 189.903 190.157 190.631V190.794C190.157 191.203 190.084 191.58 189.939 191.926C189.802 192.262 189.593 192.553 189.311 192.799C189.039 193.044 188.698 193.235 188.289 193.371C187.88 193.508 187.407 193.576 186.871 193.576C186.262 193.576 185.721 193.489 185.248 193.317C184.785 193.135 184.394 192.889 184.076 192.58C183.766 192.262 183.53 191.894 183.367 191.476C183.203 191.049 183.121 190.585 183.121 190.085V189.676H184.266V190.003C184.266 190.84 184.494 191.467 184.948 191.885C185.412 192.303 186.053 192.512 186.871 192.512C187.58 192.512 188.111 192.358 188.466 192.049C188.83 191.73 189.011 191.312 189.011 190.794V190.712C189.011 190.212 188.825 189.831 188.452 189.567C188.089 189.303 187.493 189.113 186.666 188.994C186.184 188.931 185.748 188.835 185.357 188.708C184.975 188.572 184.648 188.399 184.376 188.19C184.103 187.972 183.894 187.713 183.748 187.413C183.603 187.113 183.53 186.758 183.53 186.349V186.186C183.53 185.813 183.607 185.472 183.762 185.163C183.916 184.854 184.13 184.586 184.403 184.359C184.685 184.131 185.016 183.959 185.398 183.84C185.789 183.713 186.216 183.65 186.68 183.65C187.216 183.65 187.693 183.727 188.111 183.881C188.539 184.036 188.898 184.245 189.189 184.509C189.479 184.763 189.698 185.068 189.843 185.422C189.998 185.767 190.075 186.131 190.075 186.513V187.086H188.93V186.595Z" fill="black"/>
<path d="M194.142 184.604C194.142 184.34 194.233 184.118 194.415 183.936C194.606 183.745 194.833 183.65 195.097 183.65C195.36 183.65 195.583 183.745 195.765 183.936C195.956 184.118 196.051 184.34 196.051 184.604C196.051 184.868 195.956 185.095 195.765 185.286C195.583 185.468 195.36 185.558 195.097 185.558C194.833 185.558 194.606 185.468 194.415 185.286C194.233 185.095 194.142 184.868 194.142 184.604ZM192.206 192.403H194.579V187.604H192.452V186.622H195.642V192.403H197.851V193.385H192.206V192.403Z" fill="black"/>
<path d="M206.336 192.403V193.385H200.446V191.694L205.272 187.767V187.604H200.528V186.622H206.172V188.258L201.318 192.24V192.403H206.336Z" fill="black"/>
<path d="M209.517 190.331C209.544 191.003 209.753 191.544 210.144 191.953C210.535 192.362 211.081 192.567 211.78 192.567C212.099 192.567 212.376 192.53 212.612 192.458C212.849 192.385 213.049 192.285 213.212 192.158C213.385 192.03 213.521 191.885 213.621 191.721C213.73 191.549 213.817 191.367 213.88 191.176L214.889 191.449C214.698 192.076 214.344 192.589 213.826 192.989C213.317 193.38 212.626 193.576 211.753 193.576C211.271 193.576 210.826 193.494 210.417 193.33C210.017 193.158 209.672 192.917 209.381 192.608C209.09 192.299 208.863 191.93 208.699 191.503C208.535 191.076 208.454 190.603 208.454 190.085V189.758C208.454 189.285 208.535 188.844 208.699 188.435C208.872 188.026 209.108 187.676 209.408 187.385C209.708 187.086 210.058 186.854 210.458 186.69C210.867 186.517 211.308 186.431 211.78 186.431C212.335 186.431 212.812 186.536 213.212 186.745C213.621 186.945 213.953 187.195 214.207 187.495C214.471 187.795 214.662 188.122 214.78 188.476C214.907 188.831 214.971 189.158 214.971 189.458V190.331H209.517ZM211.78 187.44C211.481 187.44 211.199 187.49 210.935 187.59C210.681 187.681 210.453 187.813 210.253 187.985C210.062 188.158 209.903 188.363 209.776 188.599C209.658 188.826 209.581 189.076 209.544 189.349H213.908C213.889 189.058 213.817 188.794 213.689 188.558C213.571 188.322 213.412 188.122 213.212 187.958C213.021 187.795 212.799 187.667 212.544 187.576C212.299 187.485 212.044 187.44 211.78 187.44Z" fill="black"/>
<path d="M219.12 192.621C219.12 192.358 219.211 192.135 219.393 191.953C219.584 191.762 219.811 191.667 220.075 191.667C220.338 191.667 220.561 191.762 220.743 191.953C220.934 192.135 221.029 192.358 221.029 192.621C221.029 192.885 220.934 193.112 220.743 193.303C220.561 193.485 220.338 193.576 220.075 193.576C219.811 193.576 219.584 193.485 219.393 193.303C219.211 193.112 219.12 192.885 219.12 192.621ZM219.12 187.385C219.12 187.122 219.211 186.899 219.393 186.717C219.584 186.526 219.811 186.431 220.075 186.431C220.338 186.431 220.561 186.526 220.743 186.717C220.934 186.899 221.029 187.122 221.029 187.385C221.029 187.649 220.934 187.876 220.743 188.067C220.561 188.249 220.338 188.34 220.075 188.34C219.811 188.34 219.584 188.249 219.393 188.067C219.211 187.876 219.12 187.649 219.12 187.385Z" fill="black"/>
<path d="M233.581 183.84H239.963V185.504L235.94 191.585C235.749 191.876 235.604 192.126 235.504 192.335C235.404 192.544 235.354 192.758 235.354 192.976V193.385H234.236V192.894C234.236 192.73 234.25 192.576 234.277 192.43C234.313 192.285 234.363 192.14 234.427 191.994C234.5 191.84 234.586 191.68 234.686 191.517C234.795 191.344 234.922 191.149 235.068 190.931L238.981 185.068V184.904H233.581V183.84Z" fill="black"/>
<path d="M244.18 188.64V187.058L247.289 185.068V184.904H241.889V183.84H248.27V185.586L245.162 187.576V187.74H245.707C246.071 187.74 246.421 187.799 246.757 187.917C247.093 188.035 247.389 188.208 247.643 188.435C247.907 188.663 248.116 188.944 248.27 189.281C248.434 189.608 248.516 189.99 248.516 190.426V190.672C248.516 191.081 248.434 191.462 248.27 191.817C248.107 192.171 247.88 192.48 247.589 192.744C247.298 192.999 246.952 193.203 246.552 193.358C246.162 193.503 245.734 193.576 245.271 193.576C244.734 193.576 244.253 193.494 243.825 193.33C243.398 193.167 243.035 192.944 242.735 192.662C242.435 192.371 242.203 192.035 242.039 191.653C241.885 191.262 241.807 190.849 241.807 190.412V189.676H242.953V190.331C242.953 190.676 243.007 190.985 243.116 191.258C243.235 191.521 243.394 191.749 243.594 191.94C243.803 192.121 244.048 192.262 244.33 192.362C244.612 192.462 244.916 192.512 245.243 192.512C245.543 192.512 245.821 192.462 246.075 192.362C246.339 192.262 246.566 192.126 246.757 191.953C246.948 191.771 247.098 191.562 247.207 191.326C247.316 191.081 247.371 190.821 247.371 190.549V190.467C247.371 189.894 247.189 189.449 246.825 189.131C246.462 188.804 246.007 188.64 245.462 188.64H244.18Z" fill="black"/>
<path d="M251.465 190.603C251.465 191.194 251.647 191.671 252.011 192.035C252.374 192.39 252.879 192.567 253.524 192.567C253.833 192.567 254.115 192.512 254.369 192.403C254.633 192.294 254.856 192.14 255.037 191.94C255.228 191.73 255.374 191.49 255.474 191.217C255.583 190.935 255.637 190.622 255.637 190.276V188.858H255.474C255.265 189.258 254.965 189.572 254.574 189.799C254.183 190.026 253.729 190.14 253.21 190.14C252.765 190.14 252.356 190.072 251.983 189.935C251.611 189.799 251.288 189.599 251.015 189.335C250.743 189.063 250.529 188.735 250.374 188.354C250.229 187.972 250.156 187.535 250.156 187.045V186.881C250.156 186.408 250.238 185.977 250.402 185.586C250.565 185.186 250.792 184.845 251.083 184.563C251.383 184.272 251.733 184.049 252.133 183.895C252.542 183.731 252.988 183.65 253.469 183.65C253.951 183.65 254.392 183.731 254.792 183.895C255.201 184.049 255.551 184.268 255.842 184.549C256.142 184.831 256.374 185.168 256.537 185.558C256.701 185.949 256.783 186.377 256.783 186.84V190.276C256.783 190.785 256.696 191.244 256.524 191.653C256.36 192.053 256.128 192.399 255.828 192.689C255.537 192.971 255.192 193.189 254.792 193.344C254.392 193.498 253.96 193.576 253.497 193.576C253.033 193.576 252.606 193.508 252.215 193.371C251.824 193.235 251.488 193.039 251.206 192.785C250.924 192.521 250.706 192.208 250.552 191.844C250.397 191.471 250.32 191.058 250.32 190.603H251.465ZM253.469 184.659C253.142 184.659 252.842 184.713 252.57 184.822C252.306 184.931 252.079 185.086 251.888 185.286C251.697 185.486 251.552 185.722 251.452 185.995C251.352 186.258 251.302 186.545 251.302 186.854V187.017C251.302 187.336 251.356 187.626 251.465 187.89C251.574 188.145 251.724 188.367 251.915 188.558C252.106 188.74 252.333 188.881 252.597 188.981C252.86 189.081 253.151 189.131 253.469 189.131C253.779 189.131 254.065 189.081 254.328 188.981C254.592 188.872 254.819 188.726 255.01 188.544C255.21 188.363 255.365 188.145 255.474 187.89C255.583 187.635 255.637 187.363 255.637 187.072V186.813C255.637 186.513 255.587 186.231 255.487 185.967C255.387 185.704 255.242 185.477 255.051 185.286C254.86 185.086 254.628 184.931 254.356 184.822C254.092 184.713 253.797 184.659 253.469 184.659Z" fill="black"/>
<path d="M268.926 189.431H269.158L271.735 186.622H273.044V186.704L270.235 189.799V190.044L273.371 193.303V193.385H272.062L269.185 190.412H268.926V193.385H267.863V183.84H268.926V189.431Z" fill="black"/>
<path d="M276.348 193.385H275.284V183.84H276.348V187.685H276.511C276.748 187.276 277.075 186.967 277.493 186.758C277.911 186.54 278.366 186.431 278.856 186.431C279.275 186.431 279.67 186.508 280.043 186.663C280.415 186.817 280.743 187.04 281.024 187.331C281.315 187.622 281.543 187.981 281.706 188.408C281.879 188.835 281.965 189.322 281.965 189.867V190.14C281.965 190.694 281.883 191.185 281.72 191.612C281.556 192.04 281.329 192.399 281.038 192.689C280.756 192.98 280.424 193.203 280.043 193.358C279.661 193.503 279.256 193.576 278.829 193.576C278.611 193.576 278.388 193.548 278.161 193.494C277.934 193.448 277.716 193.376 277.507 193.276C277.307 193.167 277.12 193.039 276.948 192.894C276.775 192.739 276.629 192.558 276.511 192.349H276.348V193.385ZM278.611 192.567C278.938 192.567 279.238 192.512 279.511 192.403C279.784 192.285 280.02 192.121 280.22 191.912C280.429 191.703 280.588 191.449 280.697 191.149C280.815 190.849 280.874 190.512 280.874 190.14V189.867C280.874 189.503 280.815 189.176 280.697 188.885C280.588 188.585 280.429 188.331 280.22 188.122C280.02 187.904 279.779 187.735 279.497 187.617C279.225 187.499 278.929 187.44 278.611 187.44C278.293 187.44 277.997 187.504 277.725 187.631C277.452 187.749 277.211 187.917 277.002 188.135C276.802 188.354 276.643 188.617 276.525 188.926C276.407 189.226 276.348 189.558 276.348 189.922V190.085C276.348 190.458 276.407 190.799 276.525 191.108C276.643 191.408 276.802 191.667 277.002 191.885C277.211 192.103 277.452 192.271 277.725 192.39C277.997 192.508 278.293 192.567 278.611 192.567Z" fill="black"/>
</svg>
