<svg width="30" height="30" viewBox="0 0 30 30" fill="none" xmlns="http://www.w3.org/2000/svg">
<path d="M15.0003 7.34157C10.7722 7.34157 7.34375 10.7691 7.34375 14.9981C7.34375 19.2272 10.7722 22.6538 15.0003 22.6538C19.2284 22.6538 22.6569 19.2263 22.6569 14.9972C22.6569 10.7681 19.2284 7.34157 15.0003 7.34157ZM17.6862 15.6394L15.6416 17.6841C15.2872 18.0384 14.7134 18.0384 14.3591 17.6841L12.3144 15.6394C11.96 15.285 11.96 14.7113 12.3144 14.3569L14.3591 12.3122C14.7134 11.9578 15.2872 11.9578 15.6416 12.3122L17.6862 14.3569C18.0406 14.7103 18.0406 15.285 17.6862 15.6394Z" fill="white"/>
<path d="M11.1264 3.34688C13.6024 2.50969 16.3905 2.50688 18.8805 3.34969C19.7833 3.64594 20.8924 4.24969 21.692 4.74844C21.3245 5.73282 21.5308 6.88313 22.322 7.67438C23.403 8.75625 25.157 8.75625 26.238 7.67438C27.3199 6.59344 27.3199 4.83938 26.238 3.75844C25.2874 2.80782 23.8192 2.69438 22.743 3.41438C21.8186 2.82469 20.5108 2.10657 19.413 1.7475C16.5883 0.793129 13.4102 0.793129 10.5855 1.7475C10.1439 1.89657 9.90673 2.37563 10.0567 2.81719C10.2058 3.25782 10.683 3.49594 11.1264 3.34688Z" fill="white"/>
<path d="M18.8741 26.6494C16.3982 27.4866 13.6101 27.4894 11.1201 26.6466C10.3673 26.4 9.20758 25.8113 8.30008 25.2759C8.68164 24.285 8.47726 23.1206 7.67851 22.3209C6.59664 21.24 4.84352 21.24 3.76258 22.3209C2.6807 23.4028 2.6807 25.1559 3.76258 26.2369C4.70383 27.1781 6.1532 27.2981 7.22664 26.6006C8.24477 27.2184 9.62852 27.9328 10.5876 28.2469C11.9995 28.7241 13.4845 28.9669 15.0013 28.9669C16.5182 28.9669 18.0032 28.7241 19.4151 28.2469C19.8566 28.0978 20.0938 27.6188 19.9438 27.1772C19.7938 26.7366 19.3166 26.4994 18.8741 26.6494Z" fill="white"/>
<path d="M28.9691 14.9981C28.9691 13.4803 28.7272 11.9953 28.2491 10.5844C28.0991 10.1419 27.6209 9.90469 27.1794 10.0556C26.7378 10.2047 26.5016 10.6838 26.6506 11.1253C27.0687 12.3619 27.2816 13.6659 27.2816 14.9991C27.2816 16.3322 27.0687 17.6363 26.6478 18.8803C26.3806 19.6969 25.8416 20.8397 25.3306 21.7181C24.3294 21.3084 23.1359 21.5091 22.3231 22.3219C21.2412 23.4038 21.2412 25.1569 22.3231 26.2378C23.4041 27.3197 25.1581 27.3197 26.2391 26.2378C27.1634 25.3134 27.2909 23.9025 26.6356 22.8356C27.2516 21.8269 27.9219 20.4141 28.2491 19.4128C28.7272 18.0009 28.9691 16.5159 28.9691 14.9981Z" fill="white"/>
<path d="M3.34969 18.8719C2.93063 17.6344 2.71875 16.3312 2.71875 14.9981C2.71875 13.665 2.93156 12.3609 3.3525 11.1169C3.60187 10.3537 4.18969 9.19219 4.71844 8.29594C5.71031 8.68031 6.87656 8.47594 7.67719 7.67531C8.75813 6.59437 8.75813 4.84031 7.67719 3.75937C6.59531 2.6775 4.84219 2.6775 3.76125 3.75937C2.82094 4.69875 2.7 6.14625 3.39469 7.21875C2.78344 8.22469 2.06906 9.61125 1.75125 10.5844C1.27313 11.9953 1.03125 13.4803 1.03125 14.9981C1.03125 16.5159 1.27313 18.0009 1.75125 19.4119C1.87031 19.7644 2.19844 19.9856 2.55094 19.9856C2.64094 19.9856 2.73187 19.9706 2.82187 19.9406C3.26156 19.7916 3.49875 19.3125 3.34969 18.8719Z" fill="white"/>
</svg>
