<svg width="37" height="38" viewBox="0 0 37 38" fill="none" xmlns="http://www.w3.org/2000/svg">
<g clip-path="url(#clip0_2555_6)">
<path d="M20.4093 18.4999C20.4093 22.0897 17.6314 25 14.2046 25C10.7777 25 8 22.0906 8 18.4999C8 14.9092 10.7779 12 14.2046 12C17.6312 12 20.4093 14.91 20.4093 18.4999ZM27.216 18.4999C27.216 21.8792 25.8269 24.6186 24.1136 24.6186C22.4003 24.6186 21.0112 21.8784 21.0112 18.4999C21.0112 15.1214 22.4003 12.3812 24.1136 12.3812C25.8269 12.3812 27.216 15.1214 27.216 18.4999ZM30 18.4999C30 21.5276 29.5114 23.9819 28.9089 23.9819C28.3063 23.9819 27.8177 21.5268 27.8177 18.4999C27.8177 15.473 28.3063 13.0178 28.9091 13.0178C29.5118 13.0178 30 15.4723 30 18.4999Z" fill="white"/>
</g>
<defs>
<clipPath id="clip0_2555_6">
<rect width="22" height="13" fill="white" transform="translate(8 12)"/>
</clipPath>
</defs>
</svg>
