<svg width="252" height="68" viewBox="0 0 252 68" fill="none" xmlns="http://www.w3.org/2000/svg">
<rect x="1" y="1" width="250" height="66" fill="white" stroke="black" stroke-width="2"/>
<path d="M99.9113 18.5098V26.6916H97.176V18.5098H94.4407V26.6916H91.7054V18.5098H88.9701V26.6916H75.2937V18.5098H72.5584V26.6916V29.4189H99.9113V32.1461H97.176H94.4407H69.8231V18.5098H67.0878V32.1461H64.3525V18.5098H61.6172V32.1461V34.8734V48.5098H64.3525V40.3279H67.0878V48.5098H69.8231V40.3279H72.5584V48.5098H75.2937V40.3279H88.9701V48.5098H91.7054V40.3279V37.6007H69.8231H67.0878H64.3525V34.8734H67.0878H69.8231H94.4407V48.5098H97.176V34.8734H99.9113V48.5098H102.647V34.8734V32.1461V29.4189V26.6916V18.5098H99.9113Z" fill="black"/>
<path d="M120.837 29.5391V32.5129H114.144V29.5391H111.912V37.7188H114.144V34.745H120.837V37.7188H123.069V29.5391H120.837Z" fill="black"/>
<path d="M163.228 34.7461H160.996V37.72H163.228V34.7461Z" fill="black"/>
<path d="M163.226 29.5391H160.997V32.5129H154.304V29.5391H152.072V37.7188H154.304V34.745H160.997L163.226 32.5129V29.5391Z" fill="black"/>
<path d="M134.967 29.5391H125.301V37.7188H127.533V34.745H134.226V37.7188H136.458V29.5391H134.971H134.967ZM127.53 32.5129V31.7678H134.222V32.5129H127.53Z" fill="black"/>
<path d="M149.841 31.7678V29.5391H140.916H140.174H138.688V37.7188H140.174H140.916H149.841V35.4868H140.916V31.7678H149.841Z" fill="black"/>
<path d="M176.616 31.7678V29.5391H167.691H166.946H165.459V37.7188H166.946H167.691H176.616V35.4868H167.691V34.745H176.616V32.5129H167.691V31.7678H176.616Z" fill="black"/>
<path d="M187.769 29.5391V34.745L181.076 29.5391H178.844V37.7188H181.076V32.5129L187.769 37.7188H190.001V29.5391H187.769Z" fill="black"/>
</svg>
