<svg width="23" height="23" viewBox="0 0 23 23" fill="none" xmlns="http://www.w3.org/2000/svg">
<g clip-path="url(#clip0_746_1820)">
<path d="M22.63 11.315C22.63 5.06005 17.5578 0 11.315 0C5.06005 0 0 5.06005 0 11.315C0 17.5578 5.06005 22.63 11.315 22.63C17.5578 22.63 22.63 17.5578 22.63 11.315Z" fill="url(#paint0_radial_746_1820)"/>
<path d="M19.0087 7.77911C18.9599 8.05955 18.9111 8.19367 18.838 8.33999C18.7648 8.51069 18.6917 8.69358 18.6185 9.08375C18.5941 9.23007 18.5697 9.352 18.5575 9.44954V9.46173C18.5331 9.62024 18.521 9.72998 18.46 9.91287C18.4112 10.0714 18.3259 10.3274 18.1186 10.5957C17.9479 10.8151 17.6675 11.1931 17.2895 11.2419C17.2529 11.2419 17.1919 11.2419 17.1554 11.2297C16.0824 10.681 15.1679 10.2787 14.8509 10.1933C14.4851 10.0836 14.5339 9.27884 14.5705 8.57165C14.5948 8.25464 14.607 7.94981 14.5948 7.69376C14.5461 6.79149 14.3876 5.81606 13.6072 5.34054C13.1439 5.0601 12.5342 4.97475 11.9612 4.97475C12.0709 4.92598 12.1807 4.85282 12.3148 4.77966C12.6562 4.58458 13.0707 4.34072 13.4975 4.29195C13.6316 4.27976 13.7657 4.26756 13.8999 4.24318C14.7412 4.14563 15.4727 4.06028 16.2409 4.32853C16.5945 4.45046 17.3017 4.84063 17.4846 5.21861C17.6187 5.47466 17.8382 5.68194 18.2649 6.0843C18.4966 6.29158 18.6429 6.41351 18.7526 6.51105C18.9111 6.63298 18.9355 6.66956 18.9843 6.75491C19.1306 7.04754 19.0818 7.35236 19.0087 7.77911Z" fill="white"/>
<path d="M15.1191 11.4735C15.1679 11.4857 15.1923 11.5467 15.1557 11.5955C15.046 11.7662 14.9119 12.01 14.7534 12.2904C14.6802 12.4246 14.607 12.5587 14.5461 12.6562C14.3388 13.0098 14.3266 13.3146 14.3144 13.5463C14.3022 13.8024 14.29 13.9121 14.1315 14.0096C14.0096 14.095 13.8755 14.1194 12.9976 14.2535C12.8391 14.2779 12.7781 14.3023 12.7171 14.3389C12.7049 14.351 12.6806 14.351 12.6684 14.3632C12.6196 14.3876 12.5708 14.3389 12.5708 14.2901C12.583 14.1682 12.583 14.0096 12.583 13.8024V13.7658C12.583 13.5951 12.583 13.4488 12.5708 13.339C12.5586 13.1196 12.5586 13.022 12.6196 12.9245C12.6928 12.8025 12.7537 12.766 12.8391 12.705C12.9732 12.6197 13.1561 12.5099 13.4121 12.1441C13.5584 11.949 13.5828 11.8393 13.6072 11.754C13.6194 11.7174 13.6194 11.7052 13.7291 11.6198C13.8389 11.5345 14.1925 11.2662 14.6436 11.3394C14.7899 11.3638 14.9484 11.4126 15.1191 11.4735Z" fill="white"/>
<path d="M11.6198 15.5216C11.5954 15.546 11.5832 15.5582 11.5467 15.5582C11.4491 15.5582 11.3881 15.5338 11.3516 15.4851C11.2662 15.3753 11.2784 15.1559 11.2906 15.0217L11.6686 14.9242C11.693 15.1315 11.7052 15.4119 11.6198 15.5216Z" fill="white"/>
<path d="M11.6441 14.1803C11.6319 14.2291 11.6319 14.2901 11.6319 14.3632C11.6319 14.3876 11.6319 14.412 11.6319 14.4364C11.6319 14.4974 11.6319 14.5949 11.6319 14.6437C11.51 14.6803 11.4125 14.6803 11.2905 14.6803C11.2905 14.6437 11.2905 14.5827 11.2905 14.5461C11.2905 14.5217 11.2905 14.4852 11.2905 14.4608C11.2905 14.4242 11.2905 14.3998 11.2905 14.3632C11.2905 14.2901 11.2905 14.1803 11.3027 14.1438C11.3393 14.1438 11.3759 14.1316 11.4125 14.1194C11.4856 14.1072 11.5953 14.0828 11.6563 14.095C11.6563 14.1194 11.6563 14.156 11.6441 14.1803Z" fill="white"/>
<path d="M10.9614 15.4118C10.9492 15.6069 10.8882 15.8386 10.7053 15.8752C10.62 15.8873 10.5834 15.863 10.559 15.8386C10.4371 15.7288 10.4249 15.3874 10.4371 15.1436C10.5224 15.1436 10.62 15.1314 10.7419 15.107C10.8151 15.0948 10.8882 15.0704 10.9492 15.0582C10.9614 15.1558 10.9736 15.2777 10.9614 15.4118Z" fill="white"/>
<path d="M10.876 14.7291L10.4736 14.8754C10.498 14.7169 10.5224 14.4974 10.5346 14.3511C10.5468 14.2536 10.5712 14.217 10.5834 14.2048C10.5834 14.2048 10.5956 14.1926 10.6078 14.1926C10.6078 14.1926 10.6078 14.1926 10.6199 14.1926H10.6321L10.8882 14.1804C10.876 14.3023 10.876 14.5706 10.876 14.7291Z" fill="white"/>
<path d="M10.2176 14.6071C10.1932 14.6681 10.1688 14.8388 10.1566 14.9607L9.65674 14.9485C9.68112 14.79 9.7299 14.6315 9.76647 14.5096C9.81525 14.3876 9.85182 14.2901 9.9006 14.2657C9.94937 14.2413 10.0591 14.2291 10.1323 14.2901C10.242 14.3633 10.2664 14.473 10.2176 14.6071Z" fill="white"/>
<path d="M10.0346 16.1556C9.99804 16.2043 9.94926 16.2409 9.90049 16.2409C9.83953 16.2531 9.80295 16.2287 9.76637 16.2043C9.60786 16.058 9.62006 15.5825 9.63225 15.3508C9.83953 15.3021 10.0712 15.2655 10.1809 15.2533C10.1809 15.4362 10.1931 15.9361 10.0346 16.1556Z" fill="white"/>
<path d="M9.37639 14.9242C9.352 14.9852 9.32762 15.0461 9.31542 15.1071C9.25446 15.1315 9.07157 15.1071 8.88867 15.0705L9.0106 14.278C9.21788 14.217 9.46174 14.2048 9.51051 14.2658C9.59586 14.3511 9.43735 14.7535 9.37639 14.9242Z" fill="white"/>
<path d="M9.14453 16.2654C9.04699 16.3874 8.90067 16.4483 8.69339 16.4361C8.54708 16.4361 8.49831 16.3752 8.47392 16.3386C8.36418 16.1557 8.47392 15.7289 8.58366 15.4607L9.26646 15.4973C9.27865 15.546 9.27865 15.607 9.27865 15.668C9.29084 15.8753 9.26646 16.1191 9.14453 16.2654Z" fill="white"/>
<path d="M14.8022 10.4981C14.1803 10.3274 14.2413 9.42516 14.2901 8.54727C14.3023 8.24245 14.3266 7.94982 14.3144 7.70596C14.2657 6.88904 14.1316 5.99896 13.4731 5.59659C12.766 5.16984 11.6076 5.26738 10.9004 5.35273C10.6444 5.42589 10.4005 5.48686 10.2054 5.47466C9.79089 5.45028 9.46168 5.27958 9.16905 5.12107C8.94958 4.99914 8.75449 4.8894 8.5594 4.8894C8.54721 4.8894 8.53502 4.8894 8.53502 4.8894C7.98634 4.92598 7.73029 5.0601 7.49862 5.26738C7.43766 5.31616 7.3645 5.46247 7.13284 6.13308C7.01091 6.47448 6.99871 6.65737 6.97433 6.82807C6.94994 6.98658 6.93775 7.15728 6.8524 7.41333C6.79144 7.58403 6.74266 7.73035 6.70609 7.87666C6.59635 8.25464 6.49881 8.55946 6.23056 8.92525C6.19398 8.96183 6.15741 9.03499 6.10863 9.09595C6.04767 9.19349 5.97451 9.31542 5.86478 9.44954C5.79162 9.54709 5.63311 9.91287 5.6453 10.0226C5.6575 10.2055 5.71846 10.3152 5.77943 10.4372C5.84039 10.5591 5.92574 10.7054 5.93793 10.9127V10.9493C5.96232 11.2663 5.91355 11.4248 5.3161 11.9613C4.93812 12.3027 4.65768 12.6319 4.47479 12.8757C4.46259 12.9001 4.47479 12.9245 4.51137 12.9245C4.52356 12.9245 4.52356 12.9245 4.52356 12.9245C4.53575 12.9245 4.54794 12.9245 4.56014 12.9245C4.57233 12.9245 4.58452 12.9245 4.59672 12.9245C4.60891 12.9245 4.6211 12.9245 4.63329 12.9245C4.77961 12.9367 4.92592 12.9977 5.02347 13.1074C5.03566 13.1318 5.07224 13.1318 5.09662 13.1196C5.19417 13.083 5.3039 13.083 5.40145 13.0952C5.52338 13.1074 5.6575 13.144 5.74285 13.2293C5.76723 13.2537 5.80381 13.2659 5.84039 13.2537C5.93793 13.2293 6.04767 13.2293 6.14521 13.2659C6.21837 13.2903 6.29153 13.3391 6.3403 13.4C6.37688 13.4366 6.43784 13.4488 6.48661 13.4244C6.511 13.4122 6.54758 13.3878 6.58416 13.3757C6.71828 13.3269 6.86459 13.3513 6.98652 13.4C7.04749 13.4244 7.10845 13.4366 7.16941 13.4854C7.26696 13.5585 7.34012 13.6561 7.37669 13.7658C7.40108 13.8268 7.48643 13.8512 7.5352 13.8024C7.63274 13.7292 7.7059 13.7171 7.77906 13.7414C7.81564 13.7536 7.84002 13.778 7.86441 13.8146C7.90099 13.8634 7.96195 13.9121 8.01072 13.8878C8.218 13.8268 8.46186 13.8634 8.64475 13.9609C8.70572 13.9975 8.77888 14.0463 8.81545 14.1194V14.0828C8.81545 14.0706 8.82765 14.0585 8.83984 14.0463L8.87642 14.0341C8.97396 13.9975 9.48606 13.8512 9.68115 14.0585C9.69334 14.0706 9.70553 14.0706 9.71773 14.0585C9.74211 14.0341 9.7665 14.0097 9.77869 14.0097C9.91281 13.9365 10.1323 13.9243 10.2786 14.0585C10.303 14.0828 10.3518 14.0706 10.3761 14.0463C10.3883 14.0219 10.4005 14.0097 10.4249 13.9975C10.4737 13.9487 10.5468 13.9365 10.62 13.9365L10.9004 13.9243C10.9736 13.9243 11.1931 13.8999 11.254 13.8878H11.2662C11.2906 13.8878 11.3272 13.8756 11.3638 13.8634C11.4979 13.839 11.6564 13.8024 11.7783 13.8634C11.9003 13.9243 11.8881 14.0585 11.8759 14.1804C11.8759 14.2292 11.8637 14.2779 11.8637 14.3267C11.8637 14.3511 11.8637 14.3755 11.8637 14.3999C11.8637 14.5096 11.8637 14.6071 11.8515 14.6803L11.8637 14.7413C11.8637 14.7413 11.8637 14.7413 11.8637 14.7535C11.8759 14.8022 11.9368 14.8388 11.9734 14.8022C12.071 14.7413 12.1685 14.6681 12.2051 14.6193V14.6071C12.2051 14.5949 12.2173 14.5706 12.2295 14.5218C12.2417 14.412 12.266 14.2048 12.266 13.778C12.266 13.7536 12.266 13.7414 12.266 13.7292C12.266 13.5707 12.266 13.4366 12.2538 13.3269C12.2417 13.0952 12.2295 12.9123 12.3514 12.7294C12.4611 12.5465 12.5709 12.4856 12.6806 12.4124C12.8025 12.3393 12.9367 12.2539 13.1683 11.9369C13.2781 11.7784 13.2902 11.7174 13.3024 11.6686C13.3268 11.5467 13.3634 11.4736 13.5463 11.3516C13.6926 11.2419 14.1194 10.9127 14.7046 11.0102C14.8997 11.0468 15.2045 11.1444 15.5215 11.2663C15.5337 11.2663 15.5459 11.2785 15.5581 11.2785H15.5703C15.8508 11.3882 16.1068 11.5101 16.2897 11.6077C16.3263 11.6321 16.375 11.6199 16.4116 11.5833C16.4726 11.5101 16.5336 11.4736 16.5945 11.4248C16.6189 11.4126 16.6433 11.4004 16.6555 11.3882C16.6677 11.3882 16.6677 11.376 16.6677 11.376C16.7164 11.3394 16.7164 11.2419 16.6555 11.2175C15.8386 10.8151 15.0582 10.5713 14.8022 10.4981ZM8.92519 10.681C8.7301 11.5101 7.43766 12.4368 6.8524 12.4368H6.84021C6.82801 12.4368 6.81582 12.4368 6.81582 12.4368C6.80363 12.4368 6.79144 12.4368 6.77924 12.4246C6.76705 12.4246 6.76705 12.4246 6.75486 12.4246C6.64512 12.388 6.49881 12.3149 6.38907 12.2051C6.31591 12.132 6.25495 12.0344 6.23056 11.9491C6.23056 11.9369 6.21837 11.9125 6.21837 11.9003C6.18179 11.754 6.14521 11.5833 6.26714 11.2907C6.27933 11.2541 6.30372 11.2175 6.31591 11.1809C6.31591 11.1687 6.32811 11.1565 6.32811 11.1444C6.3403 11.1078 6.35249 11.0834 6.36468 11.059C6.37688 11.0102 6.40126 10.9737 6.41346 10.9493C6.41346 10.9371 6.42565 10.9249 6.42565 10.9127C6.46223 10.8151 6.46223 10.7786 6.47442 10.742C6.47442 10.7176 6.48661 10.6688 6.49881 10.6201C6.53538 10.4616 6.55977 10.3274 6.57196 10.2177C6.59635 10.0104 6.63293 9.82752 6.74266 9.65682C6.76705 9.63244 6.77924 9.60805 6.80363 9.58367C6.81582 9.57147 6.81582 9.57147 6.82801 9.55928C6.84021 9.54709 6.84021 9.54709 6.8524 9.53489C6.87679 9.51051 6.91336 9.49832 6.93775 9.48612C6.94994 9.48612 6.96214 9.47393 6.97433 9.47393C6.99871 9.46174 7.0231 9.46174 7.04749 9.44954C7.15722 9.42516 7.27915 9.42516 7.42547 9.43735C7.58397 9.44954 7.73029 9.47393 7.85222 9.51051C7.96195 9.53489 8.0595 9.57147 8.13265 9.60805C8.14485 9.60805 8.14485 9.62024 8.15704 9.62024C8.16923 9.63244 8.18143 9.63244 8.20581 9.64463C8.2302 9.65682 8.24239 9.65682 8.26678 9.66902C8.29116 9.68121 8.31555 9.6934 8.33993 9.7056L8.36432 9.71779C8.44967 9.75437 8.53502 9.80314 8.59598 9.85191C8.63256 9.8763 8.65695 9.90068 8.68133 9.92507C8.69353 9.93726 8.70572 9.93726 8.70572 9.94945C8.71791 9.96165 8.71791 9.96165 8.7301 9.97384C8.98616 10.1933 8.97396 10.4981 8.92519 10.681ZM9.53483 7.52307L9.51045 7.66938C9.44948 8.01078 9.31536 8.47411 8.82765 8.59604C8.35213 8.70578 8.24239 8.73016 7.91318 8.75455C7.90099 8.75455 7.90099 8.75455 7.8888 8.75455C7.64494 8.75455 7.16941 8.59604 7.08406 8.21806C7.03529 7.97421 7.14503 7.79131 7.31573 7.49868C7.34012 7.44991 7.37669 7.40114 7.41327 7.34017C7.65713 6.93781 7.74248 6.64518 7.81564 6.41352C7.8888 6.18185 7.94976 5.99896 8.10827 5.84045C8.14485 5.80387 8.18142 5.76729 8.2302 5.74291C8.25458 5.71852 8.29116 5.70633 8.32774 5.68194C8.37651 5.65756 8.42528 5.64536 8.47405 5.62098C8.58379 5.5844 8.70572 5.57221 8.81545 5.57221C9.04712 5.57221 9.27878 5.63317 9.43729 5.76729C9.51045 5.82826 9.62019 5.93799 9.68115 6.29159C9.70554 6.47448 9.65676 6.80369 9.53483 7.52307ZM13.0342 8.4985C12.8635 8.79113 12.7781 8.94964 12.6318 9.07157C12.3392 9.31542 12.01 9.36419 11.7296 9.36419C11.5345 9.36419 11.3638 9.32762 11.254 9.31542C10.9614 9.26665 10.4371 9.16911 10.2542 8.74236C10.2176 8.65701 10.2176 8.60824 10.2176 8.53508C10.2176 8.47411 10.2176 8.35218 10.1811 8.09613V8.08394C10.1689 7.96201 10.1567 7.82789 10.1811 7.65719V7.6328C10.2786 7.1207 10.3152 7.04755 10.3274 6.99877C10.3761 6.90123 10.4981 6.85246 10.6078 6.91342C10.7054 6.9622 10.7419 7.08412 10.7054 7.18167C10.6932 7.20605 10.6688 7.31579 10.5834 7.71815V7.74254C10.559 7.85228 10.5712 7.93763 10.5834 8.04736V8.05956C10.62 8.35218 10.62 8.47411 10.62 8.54727C10.62 8.55946 10.62 8.57166 10.62 8.58385V8.59604C10.6566 8.68139 10.7297 8.73016 10.8151 8.77894C10.8761 8.80332 10.937 8.75455 10.9248 8.69359C10.8395 8.24245 10.8395 7.71815 11.0102 7.38895C11.0711 7.27921 11.1687 7.10851 11.2662 6.93781C11.2784 6.92562 11.2906 6.90123 11.2906 6.88904C11.3028 6.87685 11.3028 6.86465 11.315 6.85246C11.3638 6.7793 11.4003 6.71834 11.4369 6.65737C11.4369 6.64518 11.4491 6.64518 11.4491 6.63299L11.4613 6.62079C11.4735 6.6086 11.4735 6.59641 11.4857 6.58422C11.4857 6.58422 11.4857 6.57202 11.4979 6.57202L11.5101 6.55983C11.5101 6.54764 11.5223 6.54764 11.5223 6.53544C11.5589 6.48667 11.5954 6.4379 11.6198 6.38913C11.6686 6.32817 11.6076 6.25501 11.5467 6.27939C11.376 6.35255 11.2662 6.4379 11.2418 6.45009C11.1565 6.52325 11.0224 6.51106 10.9492 6.41352C10.8761 6.32817 10.8882 6.19404 10.9858 6.12089C11.0955 6.03554 11.6564 5.63317 12.327 5.81606C12.8147 5.95019 13.0586 6.32817 13.1561 6.46229C13.2293 6.57202 13.4731 6.91342 13.4609 7.40114C13.4609 7.75473 13.3146 8.02298 13.0342 8.4985Z" fill="white"/>
<path d="M8.66909 5.9989C8.63252 6.08425 8.59594 6.18179 8.54717 6.29153C8.44962 6.54758 8.32769 6.84021 8.26673 6.94995C8.16919 7.13284 8.09603 7.25477 8.03506 7.34012C7.96191 7.44985 7.91314 7.53521 7.86436 7.65713C7.79121 7.86441 7.77901 8.09608 7.82779 8.35213C7.69366 8.33994 7.48638 8.25459 7.462 8.13266C7.44981 8.04731 7.49858 7.96196 7.64489 7.70591C7.66928 7.65713 7.70586 7.59617 7.74244 7.5474C7.99849 7.10845 8.10822 6.77925 8.18138 6.53539C8.26673 6.27934 8.30331 6.1696 8.43743 6.07206C8.52278 6.03548 8.59594 6.01109 8.66909 5.9989Z" fill="white"/>
<path d="M8.41315 15.2167C8.26684 15.5094 8.09614 15.7776 7.9864 15.9117C7.88886 15.6679 7.73035 15.0948 7.77912 14.6437C7.77912 14.6315 7.77912 14.6193 7.77912 14.6071C7.79132 14.4608 7.82789 14.3389 7.90105 14.2291C7.94982 14.156 8.07175 14.1194 8.20587 14.1194C8.30342 14.1194 8.41315 14.1438 8.5107 14.1925C8.55947 14.2169 8.63262 14.2779 8.63262 14.4364C8.65701 14.6559 8.54727 14.9485 8.41315 15.2167Z" fill="white"/>
<path d="M16.2166 11.9613C16.2288 11.9735 16.2288 11.9857 16.2288 11.9979C16.1922 12.0833 16.1312 12.1442 16.0703 12.2174C15.9971 12.3027 15.9117 12.4003 15.8386 12.5588C15.7288 12.7783 15.6923 12.9733 15.6801 13.4854C15.6557 14.0829 15.6801 14.4121 15.7045 14.656C15.7167 14.8876 15.7288 15.0339 15.6923 15.2656C15.6069 15.7289 15.4118 16.0338 15.1558 16.4239C14.8388 16.9116 14.5218 17.4116 13.9853 17.5701C13.9365 17.5823 13.9365 17.5823 13.7902 17.5823C13.6683 17.5823 13.461 17.5823 13.083 17.5944C12.3758 17.6188 12.0222 17.631 11.7296 17.692C11.4126 17.753 11.2541 17.8261 11.0834 17.8871C10.937 17.948 10.8029 17.9968 10.5469 18.0578C10.3884 18.0944 10.1567 18.1187 9.36416 18.1309C8.53505 18.1309 8.03514 18.1309 7.38891 18.0578C6.48664 17.9602 6.0355 17.8993 5.73068 17.7408C5.02349 17.3628 4.71867 16.68 4.23096 15.5582C4.23096 15.546 4.24315 15.5339 4.25534 15.5339C4.27973 15.546 4.30411 15.5582 4.3285 15.5704C4.35289 15.5826 4.37727 15.5826 4.38946 15.5826C4.43824 15.5948 4.48701 15.5948 4.53578 15.5826C4.54797 15.5826 4.54797 15.5826 4.56017 15.5704C4.57236 15.5704 4.58455 15.5704 4.58455 15.5826C4.62113 15.668 4.6699 15.7411 4.75525 15.7899C4.8406 15.8387 4.93814 15.8387 5.02349 15.8387C5.12104 15.8387 5.21858 15.8265 5.31612 15.8143C5.3649 15.8143 5.41367 15.8387 5.43805 15.8753C5.5234 16.0947 5.63314 16.241 5.80384 16.2654C5.81603 16.2654 5.82823 16.2654 5.84042 16.2654C5.877 16.2654 5.93796 16.2532 6.01112 16.2045C6.07208 16.1557 6.16963 16.1923 6.2184 16.2532C6.25498 16.3142 6.30375 16.3508 6.35252 16.3874C6.52322 16.5581 6.93778 16.6434 7.27918 16.6434C7.46207 16.6434 7.63277 16.619 7.73032 16.5702C7.87663 16.4971 7.87663 16.3995 7.86444 16.3508C7.85224 16.2776 7.84005 16.1923 7.82786 16.1191C7.82786 16.1069 7.84005 16.1069 7.84005 16.1191C7.86444 16.1679 7.88882 16.2167 7.94979 16.2288C7.96198 16.2288 7.96198 16.2288 7.97417 16.2288C8.07172 16.2288 8.21803 16.2654 8.24242 16.3508C8.25461 16.3995 8.279 16.4361 8.30338 16.4849C8.36435 16.5702 8.47408 16.68 8.70575 16.6922H8.71794C8.98618 16.6922 9.19346 16.6068 9.32758 16.4361C9.33978 16.4239 9.33978 16.4117 9.35197 16.3995C9.40074 16.3264 9.54706 16.3264 9.60802 16.3874C9.68118 16.4483 9.76653 16.4849 9.86407 16.4849C9.87626 16.4849 9.90065 16.4849 9.91284 16.4849C10.0348 16.4727 10.1323 16.4117 10.2177 16.302C10.2664 16.2288 10.303 16.1435 10.3274 16.046C10.3396 16.0216 10.3762 16.0094 10.4006 16.0338C10.4493 16.0825 10.5347 16.1313 10.6566 16.1313C10.681 16.1313 10.7176 16.1313 10.7542 16.1191C10.9858 16.0703 11.1077 15.8753 11.1565 15.668C11.1565 15.6558 11.1687 15.6558 11.1687 15.668C11.2297 15.7411 11.3394 15.8265 11.5223 15.8265C11.5345 15.8265 11.5467 15.8265 11.5467 15.8265C11.6442 15.8265 11.7296 15.7777 11.7905 15.7046C11.8637 15.607 11.8881 15.4607 11.9003 15.3266C11.9003 15.29 11.9247 15.2534 11.9734 15.229C12.1685 15.1437 12.4124 14.9608 12.4855 14.8389C12.4855 14.8389 12.4855 14.8267 12.4977 14.8267C12.5099 14.7901 12.5465 14.7657 12.5709 14.7657C12.7294 14.7413 12.7904 14.7047 12.8513 14.6803C12.9001 14.656 12.9367 14.6438 13.0586 14.6194C13.9487 14.4853 14.1194 14.4487 14.3145 14.3268C14.6071 14.1317 14.6193 13.8634 14.6315 13.6074C14.6437 13.3879 14.6559 13.144 14.8266 12.8514C14.8875 12.7417 14.9607 12.6198 15.0339 12.4734C15.168 12.2296 15.3509 11.8882 15.485 11.7053C15.5094 11.6687 15.5581 11.6565 15.5947 11.6809C15.8995 11.7906 16.1678 11.9126 16.2166 11.9613Z" fill="white"/>
<path d="M7.55962 14.6194C7.52304 14.9242 7.49866 15.3388 7.54743 15.8752C7.55962 16.0216 7.58401 16.1801 7.60839 16.3386C7.57181 16.363 7.43769 16.3995 7.21822 16.3874C6.9012 16.3752 6.58419 16.302 6.48665 16.1923L6.47445 16.1801C6.4013 16.1191 6.34033 16.0703 6.34033 15.9606C6.34033 15.924 6.35253 15.8874 6.3891 15.8265C6.41349 15.8021 6.43788 15.7655 6.46226 15.7167C6.51103 15.6436 6.58419 15.5582 6.65735 15.4363C6.86463 15.0949 6.93778 14.9852 7.03533 14.851C7.04752 14.8389 7.04752 14.8267 7.05971 14.8145C7.12068 14.7413 7.18164 14.6438 7.29138 14.4853C7.36453 14.3755 7.4255 14.278 7.48646 14.2048C7.57181 14.0829 7.63278 14.0219 7.66936 13.9854C7.66936 14.0341 7.65716 14.1073 7.64497 14.1804C7.5962 14.3268 7.57181 14.4609 7.55962 14.6194Z" fill="white"/>
<path d="M7.40114 9.81528C7.40114 9.82747 7.40114 9.82747 7.40114 9.81528C7.35237 9.87624 7.3036 9.9494 7.24263 10.0713C7.08413 10.4127 7.08412 10.6078 7.08412 10.7663C7.08412 10.8517 7.08413 10.9126 7.05974 10.9858C7.04755 11.0346 7.02316 11.0955 6.98658 11.1565C6.90123 11.3638 6.7793 11.632 6.82807 11.9978C6.75492 11.9612 6.64518 11.8759 6.6208 11.8393C6.6208 11.8149 6.6086 11.8027 6.6086 11.7783C6.58422 11.6686 6.57202 11.5954 6.63299 11.4247C6.82807 10.9858 6.85246 10.8761 6.86465 10.7541C6.86465 10.7297 6.87685 10.7054 6.87685 10.6688C6.91342 10.4981 6.93781 10.3518 6.95 10.2298C6.97439 10.0469 6.99878 9.92501 7.05974 9.83966C7.08413 9.80309 7.14509 9.79089 7.23044 9.79089C7.26702 9.79089 7.3036 9.79089 7.35237 9.80309H7.36456C7.40114 9.81528 7.40114 9.81528 7.40114 9.81528Z" fill="white"/>
<path d="M7.15716 14.1682C7.14497 14.0585 7.13277 13.961 7.084 13.8512C7.084 13.8512 7.07181 13.8268 7.07181 13.8147C7.05962 13.8025 7.05962 13.7903 7.04742 13.7781L7.03523 13.7659C7.02304 13.7537 7.02304 13.7537 7.01085 13.7537L6.99865 13.7415C6.98646 13.7415 6.98646 13.7293 6.97427 13.7293H6.96207C6.90111 13.7049 6.84015 13.6805 6.76699 13.6683C6.7548 13.6683 6.7426 13.6683 6.7426 13.6683C6.73041 13.6683 6.73041 13.6683 6.71822 13.6683H6.70602C6.69383 13.6683 6.68164 13.6805 6.65725 13.6805C6.64506 13.6805 6.64506 13.6927 6.63287 13.6927L6.62067 13.7049C6.60848 13.7171 6.60848 13.7171 6.59629 13.7293L6.58409 13.7415V13.7537C6.55971 13.7903 6.53532 13.8268 6.51094 13.8634C6.44997 13.9488 6.38901 14.0463 6.32804 14.1317C6.26708 14.217 6.21831 14.2902 6.15734 14.3755C6.12076 14.4243 6.09638 14.4609 6.0598 14.5096C6.0598 14.5218 6.04761 14.5218 6.04761 14.534C6.08419 14.5462 6.12076 14.5462 6.15734 14.5584C6.24269 14.5706 6.32804 14.5828 6.4012 14.595C6.5719 14.6194 6.75479 14.6316 6.9255 14.6194C6.93769 14.6194 6.93769 14.6194 6.94988 14.6194C6.98646 14.5584 7.04742 14.4853 7.10839 14.3877C7.14497 14.3389 7.18155 14.2902 7.20593 14.2414C7.16935 14.2292 7.15716 14.1926 7.15716 14.1682Z" fill="white"/>
<path d="M6.53534 14.8875C6.52314 15.0216 6.37683 15.363 6.14516 15.6922C5.95008 15.9605 5.82815 16.0336 5.80376 16.0336C5.70622 16.0214 5.62087 15.7898 5.54771 15.5581C5.52333 15.4606 5.48675 15.3752 5.47456 15.2899C5.42578 15.1192 5.41359 14.8753 5.42578 14.729C5.62087 14.8387 5.96227 14.8631 6.44999 14.8631C6.47437 14.8753 6.51095 14.8753 6.53534 14.8875Z" fill="white"/>
<path d="M6.19399 13.7902C6.10864 13.9244 6.02329 14.0463 5.93794 14.1682C5.88917 14.2292 5.85259 14.2901 5.80382 14.3511C5.77943 14.3877 5.74286 14.4243 5.71847 14.4608C5.64531 14.4486 5.58435 14.4243 5.51119 14.4121C5.45023 14.3999 5.40146 14.3755 5.34049 14.3511C5.3283 14.3511 5.31611 14.3389 5.30391 14.3389C5.29172 14.3267 5.27953 14.3023 5.26733 14.2901C5.29172 14.2536 5.30391 14.2048 5.3283 14.1682C5.36488 14.0951 5.40146 14.0219 5.45023 13.9487C5.52338 13.8268 5.60873 13.6927 5.74286 13.6073C5.75505 13.6073 5.75505 13.5951 5.76724 13.5951C5.81601 13.5708 5.86479 13.5464 5.92575 13.5342C5.93794 13.5342 5.97452 13.5342 5.99891 13.5342H6.0111C6.0111 13.5342 6.0111 13.5342 6.02329 13.5342C6.03549 13.5342 6.04768 13.5464 6.07206 13.5464C6.07206 13.5464 6.08426 13.5464 6.08426 13.5586C6.09645 13.5708 6.10864 13.5708 6.12084 13.583C6.09645 13.5708 6.14522 13.6195 6.14522 13.6073C6.16961 13.6805 6.1818 13.7171 6.19399 13.7902Z" fill="white"/>
<path d="M5.53563 13.4366C5.37712 13.5585 5.26739 13.7292 5.18204 13.9121C5.13327 14.0096 5.08449 14.1072 5.03572 14.2047C5.03572 14.2169 5.02353 14.2291 5.02353 14.2291C4.97476 14.2169 4.92599 14.2047 4.88941 14.1925C4.84064 14.1803 4.79186 14.1559 4.74309 14.1437C4.71871 14.1315 4.70651 14.1194 4.68213 14.1072C4.7309 14.0218 4.77967 13.9365 4.84064 13.8511C4.91379 13.7414 4.99914 13.6194 5.08449 13.5219C5.12107 13.4853 5.15765 13.4366 5.19423 13.4122C5.243 13.3878 5.29177 13.3878 5.35274 13.4C5.4137 13.4 5.47467 13.4 5.52344 13.4244C5.51125 13.4244 5.52344 13.4366 5.53563 13.4366Z" fill="white"/>
<path d="M5.29176 15.5094C5.27957 15.5216 5.27957 15.5216 5.26738 15.5338H5.25518C5.21861 15.5338 5.18203 15.546 5.14545 15.546C5.07229 15.546 4.99913 15.5582 4.92598 15.546C4.8894 15.546 4.85282 15.5338 4.82843 15.5094C4.80405 15.4728 4.79185 15.3996 4.77966 15.3509C4.73089 15.0826 4.73089 14.8144 4.75528 14.5461C4.8894 14.5949 5.03571 14.6315 5.18203 14.6559C5.14545 14.8997 5.20641 15.2533 5.2308 15.3509C5.26738 15.3996 5.27957 15.4606 5.29176 15.5094Z" fill="white"/>
<path d="M4.85265 13.3512C4.73072 13.4975 4.62099 13.656 4.52344 13.8267C4.48687 13.8877 4.43809 13.9609 4.40152 14.034C4.35274 14.0218 4.30397 13.9974 4.26739 13.9731C4.23082 13.9487 4.19424 13.9243 4.16985 13.8999C4.15766 13.8877 4.13327 13.8755 4.12108 13.8633C4.12108 13.8633 4.10889 13.8633 4.10889 13.8511C4.12108 13.8146 4.14547 13.7902 4.14547 13.7658C4.16985 13.7048 4.19424 13.656 4.23082 13.6073C4.29178 13.5097 4.35274 13.4122 4.4259 13.3146C4.45029 13.2781 4.47467 13.2415 4.52344 13.2293C4.56002 13.2171 4.60879 13.2293 4.64537 13.2293C4.71853 13.2415 4.79169 13.2903 4.85265 13.3512Z" fill="white"/>
<path d="M3.91386 13.9975C3.91386 13.9854 3.92605 13.9854 3.91386 13.9975C3.96263 14.0463 3.99921 14.0829 4.04798 14.1195C4.07237 14.1317 4.08456 14.1561 4.10895 14.1682C4.10895 14.1682 4.10895 14.1682 4.10895 14.1804C4.06017 14.3877 4.0236 14.6072 4.0236 14.8267C4.0236 14.8389 4.0114 14.8389 4.0114 14.8267C3.95044 14.5706 3.87728 14.1561 3.91386 13.9975Z" fill="white"/>
<path d="M4.51139 14.4486C4.48701 14.6315 4.47481 14.8144 4.48701 14.9973C4.48701 15.0948 4.4992 15.1924 4.51139 15.3021C4.48701 15.3021 4.46262 15.3021 4.43823 15.3021H4.42604H4.41385C4.38946 15.2899 4.38946 15.2899 4.36508 15.2777C4.34069 15.2655 4.31631 15.229 4.29192 15.1924C4.24315 15.107 4.23095 15.0095 4.23095 14.9119C4.21876 14.7291 4.24315 14.534 4.27973 14.3511C4.30411 14.3633 4.34069 14.3755 4.37727 14.3877C4.42604 14.412 4.46262 14.4364 4.51139 14.4486Z" fill="white"/>
</g>
<defs>
<radialGradient id="paint0_radial_746_1820" cx="0" cy="0" r="1" gradientUnits="userSpaceOnUse" gradientTransform="translate(11.3154 12.4971) rotate(90) scale(12.7105)">
<stop offset="0.1667" stop-color="#073183"/>
<stop offset="1" stop-color="#0054F9"/>
</radialGradient>
<clipPath id="clip0_746_1820">
<rect width="22.63" height="22.63" fill="white"/>
</clipPath>
</defs>
</svg>
