<svg width="23" height="23" viewBox="0 0 23 23" fill="none" xmlns="http://www.w3.org/2000/svg">
<g clip-path="url(#clip0_108_903)">
<path d="M13.5082 11.843C13.5082 11.6921 13.5082 11.6167 13.3573 11.5412C12.8293 11.1641 12.2258 10.7869 11.6978 10.4097C11.642 10.3724 11.5763 10.3525 11.5092 10.3525C11.4421 10.3525 11.3764 10.3724 11.3206 10.4097L9.66109 11.6167C9.59181 11.652 9.53385 11.7061 9.49384 11.7728C9.45383 11.8395 9.43336 11.9161 9.43479 11.9938C9.43125 12.1565 9.37867 12.3142 9.28392 12.4464C9.24662 12.5023 9.22672 12.5679 9.22672 12.635C9.22672 12.7022 9.24662 12.7678 9.28392 12.8236C9.88739 14.0305 10.4154 15.2375 11.0189 16.4444C11.2452 16.8216 11.3961 17.2742 11.6224 17.7268C11.6978 17.6513 11.6978 17.5759 11.7732 17.5005C12.4521 15.9918 13.0556 14.4831 13.7345 12.9745C13.8099 12.8236 13.8099 12.7482 13.6591 12.6727C13.5742 12.5541 13.5167 12.4182 13.4907 12.2748C13.4646 12.1313 13.4706 11.9838 13.5082 11.843Z" fill="#CD0124"/>
<path d="M10.9434 9.88183C9.43478 8.82576 7.92612 7.7697 6.49288 6.78906L6.41745 6.8645C6.49288 7.01536 6.49288 7.0908 6.56832 7.24166L8.15242 10.6362C8.30328 10.9379 8.37872 11.2396 8.83132 11.3151C8.96168 11.3268 9.09266 11.3006 9.20848 11.2396C9.66108 10.8625 10.1891 10.5607 10.6417 10.1836L10.9434 9.88183Z" fill="#CD0124"/>
<path d="M11.3961 0C9.15816 0 6.97052 0.663613 5.10978 1.90692C3.24904 3.15023 1.79877 4.91739 0.942363 6.98494C0.0859573 9.05248 -0.138117 11.3276 0.298474 13.5224C0.735066 15.7173 1.81272 17.7335 3.39515 19.3159C4.97758 20.8983 6.99372 21.976 9.18861 22.4126C11.3835 22.8492 13.6586 22.6251 15.7261 21.7687C17.7937 20.9123 19.5608 19.462 20.8041 17.6013C22.0474 15.7405 22.7111 13.5529 22.7111 11.315C22.7111 8.31408 21.5189 5.43606 19.397 3.31409C17.275 1.19211 14.397 0 11.3961 0ZM17.5062 6.5627C17.3553 6.5627 17.2799 6.63813 17.2044 6.789C16.601 8.29767 15.9221 9.80633 15.3186 11.315V11.6167C15.3788 11.7443 15.4109 11.8833 15.4125 12.0243C15.4142 12.1653 15.3854 12.3051 15.3281 12.4339C15.2708 12.5628 15.1864 12.6778 15.0806 12.7711C14.9748 12.8644 14.8502 12.9338 14.7151 12.9745C14.6397 12.9745 14.5643 13.05 14.4888 13.2008C13.8099 14.7095 13.131 16.2936 12.5276 17.8023C12.4903 17.8581 12.4704 17.9237 12.4704 17.9908C12.4704 18.058 12.4903 18.1236 12.5276 18.1794C12.6685 18.3729 12.7313 18.6124 12.7033 18.8502C12.6753 19.0879 12.5587 19.3063 12.3767 19.4618C12.2186 19.618 12.0092 19.7117 11.7874 19.7256C11.5655 19.7394 11.3461 19.6725 11.1698 19.5372C11.0756 19.4729 10.995 19.3907 10.9326 19.2952C10.8703 19.1997 10.8273 19.0928 10.8063 18.9807C10.7853 18.8686 10.7866 18.7534 10.8101 18.6418C10.8337 18.5302 10.879 18.4244 10.9435 18.3303C10.9804 18.2606 10.9998 18.1829 10.9998 18.104C10.9998 18.0251 10.9804 17.9474 10.9435 17.8777C10.1891 16.369 9.51023 14.8604 8.75589 13.3517C8.72156 13.275 8.66943 13.2077 8.60383 13.1552C8.53823 13.1027 8.46106 13.0666 8.37873 13.05C8.22502 13.0244 8.07978 12.962 7.95542 12.8681C7.83106 12.7742 7.73127 12.6517 7.66456 12.5108C7.59786 12.37 7.56623 12.2152 7.57237 12.0595C7.57851 11.9038 7.62224 11.7519 7.69983 11.6167C7.73712 11.5609 7.75703 11.4953 7.75703 11.4281C7.75703 11.361 7.73712 11.2954 7.69983 11.2396C7.02093 9.7309 6.34203 8.29767 5.58769 6.789C5.58769 6.71357 5.51226 6.63813 5.28596 6.63813C5.06411 6.60694 4.86002 6.49958 4.70864 6.33443C4.55726 6.16929 4.46801 5.95665 4.45619 5.73293C4.47014 5.52337 4.54064 5.32152 4.66018 5.14884C4.77973 4.97616 4.94385 4.83912 5.13509 4.7523C5.33811 4.67366 5.56221 4.6683 5.76876 4.73715C5.9753 4.806 6.15136 4.94474 6.26659 5.12947C6.34203 5.28033 6.41746 5.28033 6.64376 5.28033H16.2238C16.3747 5.28033 16.5255 5.28033 16.601 5.05403C16.7039 4.87635 16.8665 4.74093 17.0599 4.67187C17.2532 4.6028 17.4648 4.60458 17.657 4.67687C17.8444 4.74781 18.0077 4.87059 18.1279 5.03087C18.2481 5.19115 18.3203 5.38233 18.3359 5.58207C18.3387 5.818 18.2564 6.04704 18.104 6.22716C17.9516 6.40729 17.7393 6.52642 17.5062 6.5627Z" fill="#CD0124"/>
<path d="M11.3961 9.35373C11.4519 9.39103 11.5175 9.41094 11.5847 9.41094C11.6518 9.41094 11.7174 9.39103 11.7732 9.35373C13.2065 8.29767 14.6397 7.31703 15.9975 6.26097C16.0729 6.18553 16.1484 6.18553 16.1484 6.1101V6.03467H6.64377C6.73008 6.06634 6.80764 6.11804 6.87007 6.18553L11.3961 9.35373Z" fill="#CD0124"/>
<path d="M12.1504 9.88184C12.7539 10.3344 13.3573 10.7116 13.9608 11.0888C14.1117 11.1642 14.338 11.0888 14.5643 11.0888C14.6397 11.0888 14.7151 10.9379 14.7151 10.8625C15.2432 9.65554 15.7712 8.37317 16.2992 7.16624C16.2992 7.09081 16.3747 7.01537 16.3747 6.93994H16.2992C15.0169 7.84514 13.5836 8.82578 12.1504 9.88184Z" fill="#CD0124"/>
</g>
<defs>
<clipPath id="clip0_108_903">
<rect width="22.63" height="22.63" fill="white" transform="translate(0.0810547)"/>
</clipPath>
</defs>
</svg>
