<svg width="24" height="23" viewBox="0 0 24 23" fill="none" xmlns="http://www.w3.org/2000/svg">
<g clip-path="url(#clip0_108_911)">
<path d="M12.0261 22.63C18.2753 22.63 23.3411 17.5643 23.3411 11.315C23.3411 5.06573 18.2753 0 12.0261 0C5.77678 0 0.71106 5.06573 0.71106 11.315C0.71106 17.5643 5.77678 22.63 12.0261 22.63Z" fill="#070A0E"/>
<path fill-rule="evenodd" clip-rule="evenodd" d="M7.24771 15.1091C6.9094 14.902 6.70233 14.5343 6.70233 14.1383V11.9273C6.70233 11.6648 6.91618 11.4521 7.17869 11.4532C7.26242 11.4532 7.34502 11.4758 7.41744 11.5177L12.4062 14.4268C12.6981 14.5965 12.8781 14.9088 12.8781 15.2471V17.5373C12.8792 17.8518 12.6246 18.1076 12.31 18.1076C12.2048 18.1076 12.1007 18.0781 12.0113 18.0238L7.24771 15.1091ZM14.6839 10.9124C14.9759 11.0821 15.1546 11.3955 15.1558 11.7327V16.3809C15.1558 16.5178 15.0822 16.6445 14.9623 16.7113L13.8704 17.3257C13.8568 17.3336 13.8421 17.3393 13.8263 17.3438V14.7629C13.8263 14.4291 13.6509 14.119 13.3635 13.947L8.9823 11.3265V8.41288C8.9823 8.15037 9.19616 7.93765 9.45867 7.93878C9.5424 7.93878 9.625 7.96141 9.69741 8.00327L14.6839 10.9124ZM16.8677 7.47939C17.1608 7.64911 17.3407 7.96254 17.3407 8.30086V15.0899C17.3396 15.229 17.2626 15.3569 17.1404 15.4236L16.1051 15.9826V11.2563C16.1051 10.9225 15.9297 10.6136 15.6446 10.4417L11.1661 7.75547V4.99235C11.1661 4.90862 11.1887 4.82602 11.2295 4.7536C11.3618 4.5273 11.6526 4.45036 11.8789 4.58162L16.8677 7.47939Z" fill="#00D395"/>
</g>
<defs>
<clipPath id="clip0_108_911">
<rect width="22.63" height="22.63" fill="white" transform="translate(0.71106)"/>
</clipPath>
</defs>
</svg>
