<svg width="23" height="23" viewBox="0 0 23 23" fill="none" xmlns="http://www.w3.org/2000/svg">
<g clip-path="url(#clip0_746_1746)">
<path d="M11.315 22.63C17.5641 22.63 22.63 17.5641 22.63 11.315C22.63 5.0659 17.5641 0 11.315 0C5.0659 0 0 5.0659 0 11.315C0 17.5641 5.0659 22.63 11.315 22.63Z" fill="#627EEA"/>
<path d="M11.6672 2.82874V9.10146L16.969 11.4705L11.6672 2.82874Z" fill="white" fill-opacity="0.602"/>
<path d="M11.6673 2.82874L6.36475 11.4705L11.6673 9.10146V2.82874Z" fill="white"/>
<path d="M11.6672 15.5355V19.7977L16.9725 12.4578L11.6672 15.5355Z" fill="white" fill-opacity="0.602"/>
<path d="M11.6673 19.7977V15.5348L6.36475 12.4578L11.6673 19.7977Z" fill="white"/>
<path d="M11.6672 14.549L16.969 11.4706L11.6672 9.10291V14.549Z" fill="white" fill-opacity="0.2"/>
<path d="M6.36475 11.4706L11.6673 14.549V9.10291L6.36475 11.4706Z" fill="white" fill-opacity="0.602"/>
</g>
<defs>
<clipPath id="clip0_746_1746">
<rect width="22.63" height="22.63" fill="white"/>
</clipPath>
</defs>
</svg>
