<svg width="24" height="23" viewBox="0 0 24 23" fill="none" xmlns="http://www.w3.org/2000/svg">
<g clip-path="url(#clip0_108_816)">
<path d="M17.4887 1.99072C16.8998 2.57303 16.3602 3.20416 15.8806 3.87714L15.729 3.82832C14.8544 3.54588 13.948 3.37154 13.0347 3.31226C12.7596 3.29134 11.7334 3.29134 11.3983 3.31226C10.3862 3.37851 9.61037 3.52845 8.72872 3.83181C8.69346 3.84575 8.66172 3.85621 8.62998 3.86668C8.13273 3.19719 7.57906 2.56955 6.96896 1.99421C9.89602 0.512276 13.3203 0.334443 16.3849 1.50256C16.7129 1.6246 17.0338 1.76756 17.3477 1.92098L17.4887 1.99072Z" fill="#F00500"/>
<path d="M22.9479 15.2164C22.5035 16.4682 21.837 17.6293 20.973 18.6405C20.504 19.1845 19.9855 19.6831 19.4283 20.1364C18.1235 21.1755 16.6 21.9182 14.9743 22.3087C13.1757 22.7376 11.2996 22.7376 9.50105 22.3087C7.87178 21.9182 6.35183 21.1755 5.047 20.1364C4.4898 19.6831 3.97139 19.1845 3.50236 18.6405C1.01613 15.7359 0.26144 11.7469 1.52748 8.15189C1.76729 7.48589 2.06704 6.8443 2.42675 6.23409C2.5925 5.95514 2.79705 5.64132 2.89579 5.5123C3.23434 6.95239 3.65047 8.21814 3.80564 8.67492C3.79506 8.69933 3.78096 8.72723 3.76685 8.75163C2.94516 10.3975 2.50081 11.984 2.39502 13.6717C2.39502 13.6926 2.39149 13.717 2.39149 13.7379C2.36328 14.2435 2.37738 14.4841 2.46202 14.8014C2.72651 15.7952 3.54115 16.8901 4.81777 17.964C6.90903 19.7214 9.74439 20.9907 11.8921 21.1371C14.1314 21.2871 17.4358 19.9934 19.6364 18.1035C19.982 17.8002 20.3065 17.4794 20.6097 17.1376C20.8284 16.8866 21.1528 16.4542 21.1282 16.4542C21.1211 16.4542 21.1282 16.4472 21.1423 16.4403C21.1528 16.4333 21.1634 16.4228 21.1564 16.4158C21.1528 16.4124 21.1599 16.4019 21.1705 16.3984C21.1811 16.3949 21.1881 16.388 21.1846 16.381C21.1811 16.374 21.1846 16.367 21.1987 16.3635C21.2093 16.3601 21.2128 16.3496 21.2093 16.3426C21.2057 16.3357 21.2093 16.3287 21.2163 16.3287C21.2234 16.3287 21.2304 16.3182 21.2304 16.3112C21.2304 16.3043 21.2375 16.2938 21.2445 16.2938C21.2516 16.2938 21.2586 16.2868 21.2586 16.2799C21.2692 16.252 21.2869 16.2241 21.3045 16.1997C21.3574 16.1195 21.569 15.7464 21.5972 15.6836C21.7982 15.2338 21.9252 14.8328 21.9851 14.4318C22.0133 14.24 22.031 13.8878 22.0168 13.8042C22.0133 13.7902 22.0133 13.7658 22.0098 13.7274C22.0027 13.6577 21.9992 13.5531 21.9922 13.4485C21.9851 13.2916 21.971 13.0719 21.9604 12.9638C21.8088 11.3808 21.3997 10.0871 20.6239 8.71676C20.5921 8.66446 20.5639 8.61216 20.5463 8.57031C20.5392 8.55985 20.5357 8.54939 20.5322 8.54242C20.6415 8.21814 21.0894 6.86173 21.4455 5.31006L21.4526 5.31703L21.5055 5.38677C21.5972 5.50881 21.8405 5.87145 21.9498 6.0458C22.4471 6.84778 22.835 7.70905 23.1101 8.60867C23.7484 10.774 23.6955 13.0824 22.9479 15.2164Z" fill="#F00500"/>
<path d="M18.3704 11.0495C18.3598 11.1053 18.1941 11.2727 18.0283 11.3948C17.5416 11.7469 16.6706 12.0747 15.7854 12.2316C15.2811 12.3223 14.7768 12.3362 14.6251 12.263C14.5264 12.2142 14.5123 12.1758 14.5476 12.0503C14.6216 11.7888 14.8614 11.5028 15.2352 11.2344C15.4257 11.0984 16.198 10.6346 16.5577 10.4393C17.1502 10.1185 17.6298 9.92676 17.9542 9.88143C18.0565 9.86749 18.1799 9.864 18.2187 9.88143C18.2822 9.90584 18.3528 10.0906 18.381 10.3138C18.3951 10.4324 18.388 10.9554 18.3704 11.0495Z" fill="black"/>
<path d="M10.0618 12.2036C10.0406 12.2455 9.93482 12.2908 9.81492 12.3082C9.69501 12.3257 9.32825 12.3152 9.12018 12.2908C8.37255 12.1932 7.57907 11.9665 7.00071 11.6876C6.67626 11.5307 6.44351 11.3737 6.2707 11.2029L6.17196 11.1018L6.16138 10.9693C6.14375 10.7391 6.14728 10.3765 6.17549 10.2475C6.19312 10.1394 6.23191 10.0348 6.28481 9.94063C6.31302 9.90576 6.31303 9.90576 6.43998 9.90576C6.59515 9.90576 6.72563 9.93017 6.93723 9.99642C7.371 10.1289 8.01636 10.4497 8.80279 10.917C9.45168 11.3005 9.69501 11.4888 9.88192 11.7468C10.0089 11.9072 10.0935 12.1339 10.0618 12.2036Z" fill="black"/>
<path d="M15.0554 17.0574C15.0554 17.0679 15.0131 17.2352 14.9602 17.434C14.9073 17.6327 14.865 17.7931 14.865 17.8001C14.8262 17.8036 14.7909 17.8071 14.7521 17.8036H14.6393L14.4841 18.1662C14.3995 18.365 14.3219 18.5498 14.3113 18.5777L14.2902 18.6265L14.2161 18.508L14.142 18.3894V17.4235L14.1138 17.4305C14.0539 17.4445 13.6272 17.5002 13.4403 17.5177C12.6679 17.5944 11.8921 17.577 11.1233 17.4689C10.9999 17.4514 10.8941 17.4375 10.8905 17.441C10.887 17.4445 10.8905 17.6676 10.8976 17.9431L10.9082 18.4382L10.8482 18.5289C10.8165 18.5777 10.7847 18.6195 10.7847 18.623C10.7742 18.6335 10.7389 18.5777 10.6578 18.4173C10.5696 18.2499 10.5061 18.0721 10.4603 17.8873L10.4356 17.7862L10.3263 17.7931L10.217 17.8036L10.1887 17.6746C10.1746 17.6049 10.157 17.4968 10.15 17.4375L10.1394 17.3259L10.0477 17.2457C9.99478 17.2004 9.94188 17.155 9.9313 17.1481C9.91367 17.1341 9.90662 17.1097 9.90662 17.0888V17.0469L10.3474 17.0504L10.7883 17.0539L10.8024 17.0992L10.8165 17.1446L10.9681 17.1516C11.0528 17.155 11.3208 17.162 11.5606 17.169L12.0014 17.1794L12.1143 17.0051L12.2306 16.8308H12.3788L12.3752 16.4681L12.3717 16.1055L12.1777 16.0218C11.5535 15.7498 11.1868 15.4395 11.0492 15.0629C11.021 14.9862 11.021 14.9583 11.014 14.6096C11.0104 14.2644 11.0104 14.233 11.0351 14.1563C11.0845 13.982 11.222 13.846 11.3984 13.8006C11.4583 13.7832 11.617 13.7832 12.4493 13.7832L13.4297 13.7867L13.539 13.839C13.6695 13.9018 13.7294 13.9471 13.8035 14.0447C13.8881 14.1563 13.9128 14.2435 13.9128 14.4562C13.9128 14.7595 13.8917 15.0211 13.8599 15.1257C13.8141 15.2686 13.7435 15.4046 13.6554 15.5267C13.479 15.7498 13.1581 15.973 12.8654 16.0741L12.7808 16.1055L12.7843 16.4716L12.7878 16.8377L12.8654 16.8447L12.943 16.8517L13.0488 17.0086L13.1511 17.1655H13.6236C13.8846 17.1655 14.1138 17.169 14.135 17.1725C14.1703 17.1794 14.1773 17.176 14.2126 17.1167L14.2549 17.0539H14.6604C14.9637 17.04 15.0554 17.0469 15.0554 17.0574Z" fill="black"/>
<path d="M13.1934 18.0586C13.1264 18.097 13.0805 18.1144 13.0699 18.1074C13.0594 18.1039 13.01 18.0621 12.9571 18.0237L12.8619 17.947L12.7631 18.0516C12.548 18.2818 12.5409 18.2922 12.4775 18.2957C12.3787 18.3062 12.3576 18.2887 12.2377 18.1109C12.1742 18.0202 12.1248 17.9435 12.1248 17.9435C12.1248 17.9435 12.079 17.9366 12.0261 17.9331L11.9273 17.9226L11.8815 18.0168L11.8356 18.1109L11.7545 18.0865C11.691 18.0656 11.6276 18.0412 11.5676 18.0133L11.4618 17.961V17.7622L12.3999 17.7657L13.338 17.7692L13.3415 17.8633C13.345 17.9749 13.3485 17.9714 13.1934 18.0586Z" fill="black"/>
<path d="M22.0098 13.8045C22.0063 13.7906 22.0063 13.7661 22.0028 13.7278C21.1564 13.6371 18.7407 13.5813 16.4978 15.412C16.4978 15.412 15.7748 12.1343 12.3893 12.1343C9.00382 12.1343 7.74836 15.412 7.74836 15.412C5.85107 13.393 3.31194 13.5395 2.39503 13.672C2.39503 13.6929 2.3915 13.7173 2.3915 13.7383C2.36329 14.2439 2.37739 14.4844 2.46203 14.8018C2.72652 15.7955 3.54116 16.8904 4.81778 17.9644C6.90904 19.7218 9.7444 20.991 11.8921 21.1375C14.1315 21.2874 17.4358 19.9938 19.6364 18.1039C19.982 17.8005 20.3065 17.4797 20.6098 17.138C20.8284 16.8869 21.1529 16.4546 21.1282 16.4546C21.1211 16.4546 21.1282 16.4476 21.1423 16.4406C21.1529 16.4336 21.1634 16.4232 21.1564 16.4162C21.1529 16.4127 21.1599 16.4022 21.1705 16.3988C21.1811 16.3953 21.1881 16.3883 21.1846 16.3813C21.1811 16.3744 21.1846 16.3674 21.1987 16.3639C21.2093 16.3604 21.2128 16.3499 21.2093 16.343C21.2058 16.336 21.2093 16.329 21.2163 16.329C21.2234 16.329 21.2304 16.3186 21.2304 16.3116C21.2304 16.3046 21.2375 16.2942 21.2445 16.2942C21.2516 16.2942 21.2587 16.2872 21.2587 16.2802C21.2692 16.2523 21.2869 16.2244 21.3045 16.2C21.3574 16.1198 21.569 15.7467 21.5972 15.6839C21.7982 15.2341 21.9252 14.8331 21.9851 14.4321C22.0063 14.2404 22.0239 13.8882 22.0098 13.8045ZM13.1934 18.0585C13.1264 18.0969 13.0805 18.1143 13.07 18.1073C13.0594 18.1039 13.01 18.062 12.9571 18.0237L12.8619 17.9469L12.7631 18.0516C12.548 18.2817 12.541 18.2921 12.4775 18.2956C12.3787 18.3061 12.3576 18.2887 12.2377 18.1108C12.1742 18.0202 12.1248 17.9435 12.1248 17.9435C12.1248 17.9435 12.079 17.9365 12.0261 17.933L11.9273 17.9225L11.8815 18.0167L11.8357 18.1108L11.7545 18.0864C11.6911 18.0655 11.6276 18.0411 11.5676 18.0132L11.4618 17.9609V17.7621L12.3999 17.7656L13.338 17.7691L13.3415 17.8633C13.345 17.9748 13.3486 17.9714 13.1934 18.0585ZM14.9567 17.4309C14.9038 17.6296 14.8615 17.79 14.8615 17.797C14.8227 17.8005 14.7874 17.804 14.7486 17.8005H14.6358L14.4841 18.1666C14.3995 18.3654 14.3219 18.5502 14.3113 18.5781L14.2901 18.6269L14.2161 18.5083L14.142 18.3898V17.4239L14.1138 17.4309C14.0539 17.4448 13.6272 17.5006 13.4402 17.5181C12.6679 17.5948 11.8921 17.5773 11.1233 17.4692C10.9999 17.4518 10.8941 17.4379 10.8905 17.4413C10.887 17.4448 10.8905 17.668 10.8976 17.9435L10.9082 18.4386L10.8482 18.5293C10.8165 18.5781 10.7847 18.6199 10.7847 18.6234C10.7742 18.6339 10.7389 18.5781 10.6578 18.4177C10.5696 18.2503 10.5061 18.0725 10.4603 17.8877L10.4356 17.7865L10.3263 17.7935L10.217 17.804L10.1887 17.675C10.1746 17.6052 10.157 17.4971 10.15 17.4379L10.1394 17.3263L10.0477 17.2461C9.99478 17.2007 9.94189 17.1554 9.93131 17.1484C9.91368 17.1345 9.90662 17.1101 9.90662 17.0892V17.0473L10.3474 17.0508L10.7883 17.0543L10.8024 17.0996L10.8165 17.145L10.9681 17.1519C11.0528 17.1554 11.3208 17.1624 11.5606 17.1694L12.0014 17.1798L12.1143 17.0055L12.2306 16.8311H12.3787L12.3752 16.4685L12.3717 16.1059L12.1777 16.0222C11.5535 15.7502 11.1868 15.4399 11.0492 15.0633C11.021 14.9866 11.021 14.9587 11.014 14.61C11.0104 14.2648 11.0104 14.2334 11.0351 14.1567C11.0845 13.9823 11.222 13.8463 11.3984 13.801C11.4583 13.7836 11.617 13.7836 12.4493 13.7836L13.4297 13.7871L13.539 13.8394C13.6695 13.9021 13.7294 13.9475 13.8035 14.0451C13.8881 14.1567 13.9128 14.2439 13.9128 14.4566C13.9128 14.7599 13.8916 15.0214 13.8599 15.126C13.8141 15.269 13.7435 15.405 13.6554 15.527C13.479 15.7502 13.1581 15.9734 12.8654 16.0745L12.7808 16.1059L12.7843 16.472L12.7878 16.8381L12.8654 16.8451L12.943 16.8521L13.0488 17.009L13.1511 17.1659H13.6236C13.8846 17.1659 14.1138 17.1694 14.135 17.1729C14.1702 17.1798 14.1773 17.1763 14.2126 17.1171L14.2549 17.0543H14.6604C14.9743 17.0543 15.066 17.0578 15.066 17.0682C15.0554 17.0648 15.0096 17.2356 14.9567 17.4309Z" fill="white"/>
<path d="M21.9816 13.4488C21.9745 13.2919 21.9604 13.0722 21.9499 12.9641C21.7982 11.3811 21.3891 10.0874 20.6133 8.71709C20.5815 8.66479 20.5533 8.61248 20.5357 8.57064C20.5286 8.56018 20.5251 8.54972 20.5216 8.54275C20.6309 8.21846 21.0788 6.86206 21.435 5.31039C21.9181 3.2043 22.2249 0.74255 21.2869 0.003327C21.2869 0.003327 19.6646 -0.115228 17.4923 1.99086C16.9033 2.57317 16.3638 3.2043 15.8842 3.87727L15.7325 3.82846C14.8579 3.54602 13.9516 3.37167 13.0382 3.3124C12.7631 3.29147 11.7369 3.29147 11.4019 3.3124C10.3898 3.37865 9.61391 3.52858 8.73227 3.83194C8.69701 3.84589 8.66526 3.85635 8.63353 3.86681C8.13628 3.19733 7.58261 2.56969 6.97251 1.99435C4.71198 -0.122201 3.02981 -0.000160108 3.02981 -0.000160108C2.03531 0.763471 2.37386 3.3368 2.88874 5.51263C3.22729 6.95272 3.64343 8.21846 3.7986 8.67525C3.78802 8.69966 3.77391 8.72755 3.75981 8.75196C2.93812 10.3978 2.49377 11.9843 2.38797 13.672C3.3084 13.5395 5.84401 13.3895 7.74483 15.4119C7.74483 15.4119 9.00029 12.1343 12.3858 12.1343C15.7713 12.1343 16.4943 15.4119 16.4943 15.4119C18.7371 13.5813 21.1528 13.6406 21.9992 13.7278C21.9957 13.658 21.9886 13.5534 21.9816 13.4488ZM4.46512 7.36069C4.46512 7.36069 3.14618 4.10044 3.48473 2.23843C3.54116 1.92461 3.64696 1.64914 3.81271 1.43993C3.81271 1.43993 5.30797 1.58638 7.72014 4.23642C7.72014 4.23642 7.26169 4.4561 6.64807 4.92334C6.64807 4.92334 6.64454 4.92683 6.64101 4.92683C5.97449 5.43243 5.12106 6.23442 4.46512 7.36069ZM10.0618 12.204C10.0406 12.2458 9.93483 12.2912 9.81493 12.3086C9.69502 12.326 9.32826 12.3156 9.12019 12.2912C8.37256 12.1935 7.57908 11.9669 7.00073 11.6879C6.67628 11.531 6.44352 11.3741 6.27072 11.2033L6.17198 11.1021L6.1614 10.9696C6.14377 10.7395 6.14729 10.3769 6.17551 10.2478C6.19314 10.1397 6.23193 10.0351 6.28483 9.94099C6.31304 9.90612 6.31304 9.90612 6.44 9.90612C6.59517 9.90612 6.72565 9.93053 6.93725 9.99678C7.37101 10.1293 8.01638 10.4501 8.8028 10.9173C9.45169 11.3009 9.69502 11.4892 9.88193 11.7472C10.0089 11.9076 10.0935 12.1343 10.0618 12.204ZM18.3704 11.0498C18.3598 11.1056 18.1941 11.273 18.0283 11.395C17.5416 11.7472 16.6706 12.075 15.7854 12.2319C15.2811 12.3225 14.7768 12.3365 14.6252 12.2633C14.5264 12.2145 14.5123 12.1761 14.5476 12.0506C14.6216 11.7891 14.8615 11.5031 15.2353 11.2346C15.4257 11.0986 16.198 10.6349 16.5577 10.4396C17.1502 10.1188 17.6298 9.92705 17.9543 9.88172C18.0565 9.86777 18.18 9.86428 18.2187 9.88172C18.2822 9.90613 18.3528 10.0909 18.381 10.3141C18.3951 10.4326 18.388 10.9557 18.3704 11.0498ZM17.785 4.92334L17.7779 4.91986C17.1855 4.45261 16.7411 4.23294 16.7411 4.23294C19.0722 1.58289 20.5145 1.43644 20.5145 1.43644C20.6732 1.64914 20.7755 1.92112 20.8319 2.23494C21.1599 4.09695 19.8868 7.36069 19.8868 7.36069C19.3543 6.42271 18.6384 5.59283 17.785 4.92334Z" fill="#FFA409"/>
<path d="M20.8354 2.23502C20.5604 2.20015 19.2591 2.19318 17.785 4.92343L17.7779 4.91994C17.1855 4.45269 16.7411 4.23302 16.7411 4.23302C19.0722 1.58297 20.5145 1.43652 20.5145 1.43652C20.6768 1.64922 20.779 1.9212 20.8354 2.23502Z" fill="#FF9300"/>
<path d="M19.8903 7.3607C19.3543 6.41924 18.6419 5.59284 17.785 4.92336C19.2591 2.19311 20.5569 2.20008 20.8354 2.23495C21.1634 4.10045 19.8903 7.3607 19.8903 7.3607Z" fill="#FF8300"/>
<path d="M20.8883 2.24532C20.8707 2.24184 20.8531 2.23835 20.8354 2.23486L20.8883 2.24532Z" fill="#FF8300"/>
<path d="M7.72014 4.23302C7.72014 4.23302 7.26169 4.45269 6.64806 4.91994C6.64806 4.91994 6.64453 4.92343 6.64101 4.92343C5.114 2.18969 3.77038 2.20015 3.4812 2.23502C3.53763 1.9212 3.64343 1.64574 3.80917 1.43652C3.8127 1.43652 5.30796 1.58297 7.72014 4.23302Z" fill="#FF9300"/>
<path d="M6.64455 4.92336C5.9745 5.43244 5.12107 6.23094 4.46513 7.3607C4.46513 7.3607 3.14619 4.10045 3.48474 2.23495C3.77039 2.20008 5.11754 2.19311 6.64455 4.92336Z" fill="#FF8300"/>
<path d="M3.48474 2.23486C3.46711 2.23835 3.44595 2.24184 3.42831 2.24532L3.48474 2.23486Z" fill="#FF8300"/>
<path d="M16.3214 9.17049C16.3214 9.17049 15.1929 9.24023 15.334 8.3685C15.4751 7.49678 16.3567 7.39217 16.6036 7.42704C16.8504 7.46191 17.8379 7.8106 17.6615 8.54285C17.4852 9.2751 17.2384 9.13562 17.0973 9.17049C16.9562 9.20536 16.3214 9.17049 16.3214 9.17049Z" fill="white"/>
<path d="M7.99873 9.17049C7.99873 9.17049 6.87022 9.24023 7.01129 8.3685C7.15235 7.49678 8.03399 7.39217 8.28085 7.42704C8.52771 7.46191 9.51515 7.8106 9.33882 8.54285C9.16249 9.2751 8.91563 9.13562 8.77457 9.17049C8.63351 9.20536 7.99873 9.17049 7.99873 9.17049Z" fill="white"/>
</g>
<defs>
<clipPath id="clip0_108_816">
<rect width="22.63" height="22.63" fill="white" transform="translate(0.919067)"/>
</clipPath>
</defs>
</svg>
