<svg width="23" height="23" viewBox="0 0 23 23" fill="none" xmlns="http://www.w3.org/2000/svg">
<rect x="0.341064" width="22.63" height="22.63" rx="11.315" fill="#1C1C1E"/>
<path fill-rule="evenodd" clip-rule="evenodd" d="M10.0504 3.41256C7.16098 3.92646 4.75269 6.11777 3.86348 9.04195C3.70132 9.57528 3.64392 10.1499 3.65386 11.1376C3.67013 12.7308 4.01968 14.0205 4.74921 15.1788L5.19071 15.8796L7.64175 14.4296L10.0929 12.9797L10.1262 15.9247L10.1595 18.8696H11.3999H12.6402V15.9624C12.6402 13.9342 12.6815 13.0552 12.7767 13.0552C12.8516 13.0552 13.9504 13.6758 15.2185 14.4346C17.0003 15.5006 17.569 15.7862 17.7226 15.6922C17.9285 15.5663 18.9388 13.7111 18.8444 13.6322C18.8151 13.6077 17.1339 12.6008 15.1084 11.3947L11.4257 9.20191L8.94275 10.6956C7.57713 11.5171 6.39007 12.1892 6.30483 12.1892C6.18815 12.1892 6.16205 11.8904 6.19921 10.983C6.2417 9.94617 6.30408 9.65915 6.64344 8.93878C8.29759 5.42758 12.8837 4.81149 15.4754 7.75226C15.9734 8.31737 16.4527 9.34926 16.6165 10.2094C16.6859 10.5735 16.7561 10.8808 16.7728 10.8924C16.7894 10.9041 17.3342 11.2282 17.9834 11.6126L19.1639 12.3115L19.2027 11.2917C19.2557 9.89693 19.0582 8.98505 18.4184 7.6737C17.7533 6.31027 17.0218 5.4663 15.8002 4.65289C14.1817 3.57511 11.9016 3.08323 10.0504 3.41256Z" fill="#FF0083"/>
</svg>
