<svg width="20" height="23" viewBox="0 0 20 23" fill="none" xmlns="http://www.w3.org/2000/svg">
<g clip-path="url(#clip0_108_855)">
<path d="M7.87545 5.14974C7.63023 5.11471 7.61856 5.10303 7.73533 5.09136C7.95719 5.05633 8.47098 5.10303 8.83296 5.18477C9.67371 5.38328 10.4327 5.89707 11.2384 6.7962L11.4486 7.04141L11.7522 6.99471C13.0484 6.78452 14.3795 6.948 15.4888 7.46179C15.7924 7.60191 16.2712 7.88216 16.3296 7.95222C16.3529 7.97557 16.388 8.12737 16.4113 8.27917C16.4931 8.82799 16.458 9.23669 16.2829 9.55197C16.1895 9.72712 16.1895 9.77383 16.2478 9.92563C16.2946 10.0424 16.4347 10.1241 16.5631 10.1241C16.8434 10.1241 17.1353 9.68041 17.2754 9.06153L17.3338 8.81632L17.4389 8.93309C18.0344 9.59867 18.5015 10.5212 18.5716 11.1751L18.5949 11.3502L18.4898 11.1984C18.3147 10.9299 18.1512 10.7547 17.9293 10.6029C17.5323 10.3343 17.1119 10.2526 16.0026 10.1942C14.9984 10.1358 14.4262 10.0541 13.8657 9.86724C12.9082 9.55197 12.4178 9.14327 11.2851 7.63694C10.783 6.97135 10.4677 6.60937 10.1525 6.30576C9.46352 5.64018 8.77458 5.28987 7.87545 5.14974Z" fill="#FF007A"/>
<path d="M16.5748 6.63242C16.5982 6.18869 16.6565 5.89677 16.785 5.6282C16.8317 5.5231 16.8784 5.42969 16.8901 5.42969C16.9018 5.42969 16.8784 5.51143 16.8434 5.60484C16.75 5.86174 16.7383 6.22372 16.7967 6.63242C16.8784 7.15788 16.9134 7.22794 17.4739 7.80012C17.7308 8.06869 18.0344 8.40732 18.1512 8.54744L18.3497 8.80434L18.1512 8.6175C17.906 8.38397 17.3455 7.94024 17.217 7.88185C17.1353 7.83515 17.1236 7.83515 17.0652 7.89353C17.0185 7.94024 17.0069 8.0103 17.0069 8.34893C16.9952 8.8744 16.9251 9.20135 16.75 9.53999C16.6565 9.71514 16.6449 9.68011 16.7266 9.4816C16.785 9.3298 16.7967 9.25974 16.7967 8.75763C16.7967 7.74173 16.6799 7.49651 15.9676 7.08782C15.7924 6.98273 15.4888 6.83093 15.3137 6.74919C15.1269 6.66745 14.9867 6.59739 14.9984 6.59739C15.0218 6.57403 15.7107 6.77254 15.9793 6.88931C16.388 7.05279 16.458 7.06447 16.5047 7.05279C16.5398 7.01776 16.5631 6.92434 16.5748 6.63242Z" fill="#FF007A"/>
<path d="M8.35421 8.37247C7.86377 7.6952 7.5485 6.64427 7.61856 5.86192L7.64191 5.6167L7.75868 5.64005C7.96887 5.67508 8.33085 5.81521 8.50601 5.9203C8.97309 6.20055 9.18327 6.58589 9.38178 7.5434C9.44017 7.82365 9.52191 8.15061 9.55694 8.2557C9.61532 8.43085 9.83718 8.83955 10.024 9.09644C10.1525 9.28327 10.0707 9.37669 9.7788 9.35333C9.33507 9.30663 8.73955 8.89793 8.35421 8.37247Z" fill="#FF007A"/>
<path d="M15.9793 13.452C13.6672 12.5178 12.8498 11.7121 12.8498 10.3459C12.8498 10.1474 12.8615 9.98389 12.8615 9.98389C12.8732 9.98389 12.9549 10.0539 13.06 10.1357C13.5271 10.5094 14.0526 10.6728 15.5122 10.883C16.3646 11.0115 16.8551 11.1049 17.2988 11.2567C18.7117 11.7238 19.5875 12.6813 19.7977 13.9774C19.856 14.3511 19.821 15.0634 19.7276 15.437C19.6459 15.729 19.4123 16.2661 19.3539 16.2778C19.3423 16.2778 19.3189 16.2194 19.3189 16.126C19.2955 15.6355 19.0503 15.1685 18.6416 14.8065C18.1512 14.3861 17.5206 14.0708 15.9793 13.452Z" fill="#FF007A"/>
<path d="M14.3445 13.8375C14.3211 13.6623 14.2628 13.4404 14.2277 13.347L14.1693 13.1719L14.2744 13.3003C14.4262 13.4755 14.543 13.6857 14.6481 13.9776C14.7298 14.1994 14.7298 14.2695 14.7298 14.6315C14.7298 14.9818 14.7182 15.0635 14.6481 15.2621C14.5313 15.5773 14.3912 15.7992 14.1577 16.0444C13.7373 16.4765 13.1885 16.71 12.4061 16.8151C12.266 16.8268 11.869 16.8618 11.5187 16.8852C10.6429 16.9319 10.059 17.0253 9.53358 17.2121C9.46352 17.2355 9.39346 17.2588 9.38178 17.2471C9.35843 17.2238 9.72041 17.0136 10.0123 16.8735C10.421 16.675 10.8414 16.5699 11.7639 16.4064C12.2193 16.3363 12.6864 16.2429 12.8031 16.1962C13.9592 15.8342 14.5313 14.9351 14.3445 13.8375Z" fill="#FF007A"/>
<path d="M15.4071 15.7174C15.1035 15.0518 15.0334 14.4213 15.1969 13.8258C15.2203 13.7674 15.2436 13.709 15.267 13.709C15.2903 13.709 15.3604 13.744 15.4305 13.7907C15.5706 13.8841 15.8625 14.0476 16.6098 14.4563C17.5557 14.9701 18.0928 15.3671 18.4665 15.8225C18.7934 16.2195 18.9919 16.6749 19.0854 17.2354C19.1437 17.5507 19.1087 18.3097 19.027 18.625C18.7701 19.6175 18.1862 20.4116 17.3338 20.867C17.2054 20.937 17.1003 20.9837 17.0886 20.9837C17.0769 20.9837 17.1236 20.867 17.1937 20.7269C17.4739 20.1313 17.509 19.5592 17.2988 18.9169C17.1703 18.5199 16.9018 18.0411 16.3646 17.2354C15.7224 16.3013 15.5706 16.0561 15.4071 15.7174Z" fill="#FF007A"/>
<path d="M6.70775 19.2904C7.57185 18.5664 8.63446 18.0526 9.61532 17.8892C10.0357 17.8191 10.7363 17.8425 11.1217 17.9476C11.7405 18.111 12.301 18.4613 12.593 18.8934C12.8732 19.3138 13.0016 19.6757 13.1301 20.4815C13.1768 20.7967 13.2352 21.1237 13.2469 21.1938C13.3403 21.6141 13.5271 21.9411 13.7607 22.1162C14.1226 22.3848 14.7532 22.3965 15.3721 22.1629C15.4772 22.1279 15.5706 22.0929 15.5706 22.1046C15.5939 22.1279 15.2787 22.3381 15.0685 22.4432C14.7765 22.595 14.543 22.6417 14.2277 22.6417C13.6672 22.6417 13.1885 22.3498 12.8031 21.7659C12.7214 21.6492 12.5579 21.3105 12.4178 20.9952C12.0091 20.0494 11.7989 19.7692 11.3202 19.4539C10.8998 19.1853 10.3626 19.1269 9.95395 19.3254C9.41681 19.5823 9.27669 20.2713 9.65035 20.6916C9.80215 20.8668 10.0824 21.0069 10.3159 21.042C10.748 21.1003 11.1217 20.7617 11.1217 20.3297C11.1217 20.0494 11.0166 19.8859 10.7363 19.7575C10.3626 19.594 9.95395 19.7808 9.96563 20.1428C9.96563 20.2946 10.0357 20.388 10.1875 20.4581C10.2809 20.5048 10.2809 20.5048 10.2108 20.4931C9.87222 20.4231 9.79048 20.0027 10.059 19.7341C10.386 19.4072 11.0749 19.5473 11.3085 20.0027C11.4019 20.1895 11.4136 20.5632 11.3318 20.7967C11.1333 21.3105 10.5728 21.5791 10.0007 21.4273C9.61532 21.3222 9.45184 21.2171 8.98476 20.7384C8.16738 19.8976 7.8521 19.7341 6.6844 19.559L6.46254 19.5239L6.70775 19.2904Z" fill="#FF007A"/>
<path fill-rule="evenodd" clip-rule="evenodd" d="M0.565658 0.50211C3.2864 3.8067 7.47843 8.94457 7.68862 9.22482C7.86378 9.45836 7.79371 9.68022 7.50179 9.8437C7.33831 9.93712 6.99968 10.0305 6.8362 10.0305C6.64937 10.0305 6.42751 9.93712 6.2757 9.78532C6.17061 9.68022 5.71521 9.01463 4.68763 7.41489C3.90528 6.1888 3.23969 5.17291 3.22801 5.16123C3.1813 5.13787 3.1813 5.13787 4.6059 7.68346C5.50502 9.2832 5.79695 9.85538 5.79695 9.92544C5.79695 10.0772 5.75024 10.159 5.56341 10.3692C5.24813 10.7195 5.10801 11.1165 5.00291 11.9456C4.88614 12.868 4.57086 13.522 3.67174 14.6313C3.14627 15.2852 3.06453 15.4019 2.93609 15.6705C2.77261 15.9975 2.7259 16.1843 2.70255 16.6047C2.67919 17.0484 2.7259 17.3286 2.85435 17.749C2.97112 18.1227 3.09956 18.3679 3.41484 18.8467C3.68341 19.267 3.84689 19.5823 3.84689 19.6991C3.84689 19.7925 3.87025 19.7925 4.29062 19.6991C5.29484 19.4655 6.1239 19.0685 6.57931 18.5781C6.85955 18.2745 6.92962 18.111 6.92962 17.6906C6.92962 17.4221 6.91794 17.3637 6.84788 17.2002C6.73111 16.9433 6.50924 16.7331 6.03049 16.4062C5.39993 15.9741 5.13136 15.6238 5.0613 15.1567C5.00291 14.7597 5.07298 14.4911 5.42328 13.7555C5.78527 12.9965 5.87869 12.6812 5.93707 11.9105C5.9721 11.4201 6.03049 11.2216 6.17061 11.0698C6.32241 10.9063 6.45086 10.8479 6.81285 10.8012C7.40837 10.7195 7.79371 10.5677 8.09731 10.2757C8.36589 10.0305 8.48266 9.78531 8.49433 9.42333L8.50601 9.15476L8.35421 8.99128C7.80539 8.36072 0.203672 0 0.168641 0C0.156964 0 0.343796 0.221863 0.565658 0.50211ZM4.15049 17.1068C4.27894 16.8849 4.20888 16.6047 3.99869 16.4646C3.80018 16.3361 3.49658 16.3945 3.49658 16.5696C3.49658 16.6164 3.51994 16.6631 3.59 16.6864C3.69509 16.7448 3.70677 16.8032 3.62503 16.9316C3.54329 17.0601 3.54329 17.1768 3.64838 17.2586C3.81186 17.387 4.03372 17.317 4.15049 17.1068Z" fill="#FF007A"/>
<path fill-rule="evenodd" clip-rule="evenodd" d="M8.87967 10.9646C8.59942 11.0463 8.33085 11.3499 8.24911 11.6535C8.20241 11.8404 8.22576 12.179 8.3075 12.2841C8.43595 12.4476 8.55272 12.4943 8.87967 12.4943C9.52191 12.4943 10.0707 12.214 10.1291 11.8754C10.1875 11.5951 9.94228 11.2098 9.60365 11.0346C9.42849 10.9412 9.0665 10.9062 8.87967 10.9646ZM9.627 11.5484C9.72042 11.4083 9.68538 11.2565 9.51023 11.1514C9.19495 10.9529 8.71619 11.1164 8.71619 11.42C8.71619 11.5718 8.96141 11.7353 9.19495 11.7353C9.34675 11.7353 9.55694 11.6418 9.627 11.5484Z" fill="#FF007A"/>
</g>
<defs>
<clipPath id="clip0_108_855">
<rect width="19.6524" height="22.63" fill="white" transform="translate(0.16864)"/>
</clipPath>
</defs>
</svg>
