<svg width="23" height="23" viewBox="0 0 23 23" fill="none" xmlns="http://www.w3.org/2000/svg">
<g clip-path="url(#clip0_108_810)">
<path d="M11.6041 22.63C17.8745 22.63 22.9191 17.5854 22.9191 11.315C22.9191 5.04457 17.8745 0 11.6041 0C5.33363 0 0.289062 5.04457 0.289062 11.315C0.289062 17.5854 5.33363 22.63 11.6041 22.63Z" fill="#2775CA"/>
<path d="M14.7157 13.1067C14.7157 11.4566 13.7256 10.8909 11.7455 10.6552C10.3311 10.4666 10.0483 10.0894 10.0483 9.42933C10.0483 8.76921 10.5198 8.34501 11.4626 8.34501C12.3113 8.34501 12.7828 8.62789 13.0184 9.33507C13.0656 9.47651 13.2071 9.57077 13.3485 9.57077H14.1028C14.2914 9.57077 14.4328 9.42933 14.4328 9.24082V9.19364C14.2442 8.15639 13.3956 7.35495 12.3113 7.2607V6.1292C12.3113 5.94057 12.1698 5.79914 11.9341 5.75195H11.2269C11.0383 5.75195 10.8969 5.89339 10.8497 6.1292V7.21351C9.43533 7.40213 8.53963 8.34501 8.53963 9.5237C8.53963 11.0795 9.48251 11.6923 11.4626 11.9281C12.7828 12.1638 13.2071 12.4467 13.2071 13.2011C13.2071 13.9554 12.547 14.474 11.6513 14.474C10.4254 14.474 10.0011 13.9553 9.85964 13.2481C9.81257 13.0596 9.67113 12.9653 9.52969 12.9653H8.72814C8.53963 12.9653 8.39819 13.1067 8.39819 13.2953V13.3425C8.5867 14.5211 9.34107 15.3697 10.8969 15.6055V16.737C10.8969 16.9255 11.0383 17.067 11.274 17.1141H11.9812C12.1698 17.1141 12.3113 16.9727 12.3584 16.737V15.6055C13.7728 15.3697 14.7157 14.3796 14.7157 13.1067Z" fill="white"/>
<path d="M9.19962 18.0569C5.52224 16.7369 3.63637 12.6352 5.00368 9.00486C5.71087 7.02474 7.26668 5.51611 9.19962 4.80892C9.38824 4.71467 9.48249 4.57323 9.48249 4.33743V3.67742C9.48249 3.4888 9.38824 3.34736 9.19962 3.30029C9.15244 3.30029 9.05818 3.30029 9.011 3.34736C4.53218 4.76174 2.08056 9.52354 3.49494 14.0024C4.34356 16.6425 6.37087 18.6698 9.011 19.5184C9.19962 19.6127 9.38824 19.5184 9.43531 19.3298C9.48249 19.2827 9.48249 19.2355 9.48249 19.1413V18.4812C9.48249 18.3397 9.34106 18.1512 9.19962 18.0569ZM14.1971 3.34736C14.0085 3.25311 13.8199 3.34736 13.7728 3.53598C13.7256 3.58317 13.7256 3.63024 13.7256 3.72461V4.38461C13.7256 4.57323 13.8671 4.76174 14.0085 4.85611C17.6859 6.17611 19.5717 10.2778 18.2044 13.9081C17.4972 15.8882 15.9414 17.3969 14.0085 18.104C13.8199 18.1983 13.7256 18.3397 13.7256 18.5755V19.2355C13.7256 19.4242 13.8199 19.5656 14.0085 19.6127C14.0557 19.6127 14.1499 19.6127 14.1971 19.5656C18.6759 18.1512 21.1276 13.3894 19.7132 8.91061C18.8646 6.2233 16.7901 4.19599 14.1971 3.34736Z" fill="white"/>
</g>
<defs>
<clipPath id="clip0_108_810">
<rect width="22.63" height="22.63" fill="white" transform="translate(0.289062)"/>
</clipPath>
</defs>
</svg>
