<svg width="24" height="23" viewBox="0 0 24 23" fill="none" xmlns="http://www.w3.org/2000/svg">
<path d="M11.9741 22.63C18.2232 22.63 23.2891 17.5641 23.2891 11.315C23.2891 5.0659 18.2232 0 11.9741 0C5.72496 0 0.659058 5.0659 0.659058 11.315C0.659058 17.5641 5.72496 22.63 11.9741 22.63Z" fill="#50AF95"/>
<path fill-rule="evenodd" clip-rule="evenodd" d="M13.6958 12.0866C13.6155 12.0926 13.2002 12.1173 12.274 12.1173C11.5373 12.1173 11.0143 12.0953 10.8308 12.0866C7.98381 11.9615 5.85879 11.4665 5.85879 10.8738C5.85879 10.2812 7.98381 9.78686 10.8308 9.65976V11.5936C11.017 11.607 11.55 11.6384 12.2867 11.6384C13.1708 11.6384 13.6134 11.6016 13.6931 11.5942V9.6611C16.5341 9.78752 18.6544 10.2825 18.6544 10.8738C18.6544 11.4651 16.5347 11.9601 13.6931 12.0859L13.6958 12.0866ZM13.6958 9.4611V7.73064H17.6605V5.0918H6.86605V7.73064H10.8301V9.46043C7.60809 9.60826 5.18506 10.2457 5.18506 11.0096C5.18506 11.7735 7.60809 12.4103 10.8301 12.5588V18.104H13.6951V12.5568C16.9098 12.409 19.3288 11.7722 19.3288 11.0089C19.3288 10.2457 16.9118 9.60893 13.6951 9.46043L13.6958 9.4611Z" fill="white"/>
</svg>
